<svg width="210" height="956" viewBox="0 0 210 956" fill="none" xmlns="http://www.w3.org/2000/svg">
<g clip-path="url(#clip0)">
<path d="M435.995 956C423.564 954.718 411.042 952.921 398.779 950.658C384.504 948.028 370.158 944.683 356.139 940.729C341.933 936.724 327.703 931.985 313.845 926.647C298.57 920.764 283.51 914.307 269.096 907.456C254.64 900.586 240.466 893.148 226.965 885.351C213.406 877.518 200.188 869.125 187.685 860.405C175.109 851.636 162.93 842.311 151.482 832.691C104.413 793.109 67.5787 746.969 42.0189 695.547C35.4775 682.385 29.6718 668.867 24.6289 655.057C19.5183 641.032 15.1966 626.73 11.6842 612.218C8.09701 597.349 5.33797 582.291 3.41993 567.115C1.44767 551.42 0.326885 535.63 0.0625163 519.814C-0.202371 503.319 0.391394 486.822 1.8414 470.389C3.31974 453.515 5.72124 436.193 8.98129 418.908C12.2919 401.355 16.5752 383.368 21.7144 365.447C26.934 347.24 33.176 328.611 40.2672 310.076C53.974 274.246 71.9229 236.905 93.615 199.09C115.79 160.658 140.315 123.641 167.049 88.2498C194.709 51.5357 224.412 16.4163 256.014 -16.9409C287.469 -50.2211 320.839 -81.625 355.952 -110.992C364.953 -118.499 374.139 -125.903 383.255 -133H435.995V955.999V956Z" fill="#1E5DE9" fill-opacity="0.07"/>
</g>
<defs>
<clipPath id="clip0">
<rect width="436" height="1089" fill="white" transform="translate(0 -133)"/>
</clipPath>
</defs>
</svg>
