<svg width="885" height="303" viewBox="0 0 885 303" fill="none" xmlns="http://www.w3.org/2000/svg">
<g clip-path="url(#clip0)">
<path d="M0.474771 299.918C1.54381 291.37 3.03021 282.762 4.89292 274.333C7.05889 264.52 9.80371 254.661 13.0418 245.029C16.3222 235.268 20.1964 225.493 24.5555 215.975C29.3596 205.484 34.6283 195.143 40.2153 185.247C45.8176 175.322 51.879 165.593 58.2304 156.328C64.6109 147.023 71.4443 137.954 78.5409 129.378C85.6773 120.752 93.2635 112.4 101.087 104.552C133.277 72.2858 170.758 47.0782 212.491 29.6412C223.173 25.1786 234.142 21.2232 245.346 17.7932C256.724 14.3173 268.325 11.3849 280.094 9.00979C292.152 6.58419 304.362 4.72883 316.665 3.45233C329.389 2.14 342.188 1.41366 355.006 1.27652C368.374 1.14093 381.742 1.59602 395.055 2.63992C408.727 3.70457 422.758 5.40552 436.759 7.69694C450.976 10.0239 465.542 13.0212 480.053 16.6071C494.795 20.2491 509.877 24.5956 524.881 29.526C553.885 39.0561 584.103 51.5086 614.696 66.5373C645.788 81.8999 675.728 98.8751 704.345 117.366C734.031 136.497 762.421 157.028 789.378 178.861C816.272 200.593 841.642 223.637 865.356 247.874C871.419 254.087 877.397 260.426 883.127 266.717L883 302.997L0.475515 299.918L0.474771 299.918Z" fill="#1E5DE9" fill-opacity="0.07"/>
</g>
<defs>
<clipPath id="clip0">
<rect width="299.923" height="882.531" fill="white" transform="translate(884.046 3.07867) rotate(90.1999)"/>
</clipPath>
</defs>
</svg>
