<svg width="1366" height="728" viewBox="0 0 1366 728" fill="none" xmlns="http://www.w3.org/2000/svg">
<path d="M1261.42 674.243H1271.25" stroke="#A2BADD" stroke-width="2" stroke-linecap="round" stroke-linejoin="round"/>
<path d="M1266.33 668.876V679.613" stroke="#A2BADD" stroke-width="2" stroke-linecap="round" stroke-linejoin="round"/>
<path d="M1261.42 651.03H1271.25" stroke="#A2BADD" stroke-width="2" stroke-linecap="round" stroke-linejoin="round"/>
<path d="M1266.33 645.661V656.397" stroke="#A2BADD" stroke-width="2" stroke-linecap="round" stroke-linejoin="round"/>
<path d="M1261.42 627.815H1271.25" stroke="#A2BADD" stroke-width="2" stroke-linecap="round" stroke-linejoin="round"/>
<path d="M1266.33 622.448V633.185" stroke="#A2BADD" stroke-width="2" stroke-linecap="round" stroke-linejoin="round"/>
<path d="M776.45 134.716V145.453" stroke="#A2BADD" stroke-width="2" stroke-linecap="round" stroke-linejoin="round"/>
<path d="M781.373 140.084H771.534" stroke="#A2BADD" stroke-width="2" stroke-linecap="round" stroke-linejoin="round"/>
<path d="M458.768 334.986V345.724" stroke="#EAF1FD" stroke-width="2" stroke-linecap="round" stroke-linejoin="round"/>
<path d="M463.688 340.354H453.849" stroke="#EAF1FD" stroke-width="2" stroke-linecap="round" stroke-linejoin="round"/>
<path d="M386.736 544.216V554.954" stroke="#00BCD4" stroke-width="2" stroke-linecap="round" stroke-linejoin="round"/>
<path d="M391.656 549.585H381.817" stroke="#00BCD4" stroke-width="2" stroke-linecap="round" stroke-linejoin="round"/>
<path d="M685.39 419.967V430.704" stroke="#00BCD4" stroke-width="2" stroke-linecap="round" stroke-linejoin="round"/>
<path d="M690.31 425.334H680.471" stroke="#00BCD4" stroke-width="2" stroke-linecap="round" stroke-linejoin="round"/>
<path d="M883.411 290.629V301.367" stroke="#00BCD4" stroke-width="2" stroke-linecap="round" stroke-linejoin="round"/>
<path d="M888.334 295.997H878.495" stroke="#00BCD4" stroke-width="2" stroke-linecap="round" stroke-linejoin="round"/>
<path d="M1146.71 73.8169V84.5544" stroke="#00BCD4" stroke-width="2" stroke-linecap="round" stroke-linejoin="round"/>
<path d="M1151.62 79.1841H1141.78" stroke="#00BCD4" stroke-width="2" stroke-linecap="round" stroke-linejoin="round"/>
<path d="M300.32 262.153V272.89" stroke="#00BCD4" stroke-width="2" stroke-linecap="round" stroke-linejoin="round"/>
<path d="M305.24 267.521H295.401" stroke="#00BCD4" stroke-width="2" stroke-linecap="round" stroke-linejoin="round"/>
<path d="M453.849 100.571V111.308" stroke="#BDD7FE" stroke-width="2" stroke-linecap="round" stroke-linejoin="round"/>
<path d="M458.768 105.938H448.928" stroke="#BDD7FE" stroke-width="2" stroke-linecap="round" stroke-linejoin="round"/>
<path d="M735.584 709.373V720.11" stroke="#FAFAFA" stroke-opacity="0.28" stroke-width="2" stroke-linecap="round" stroke-linejoin="round"/>
<path d="M740.507 714.741H730.668" stroke="#FAFAFA" stroke-opacity="0.28" stroke-width="2" stroke-linecap="round" stroke-linejoin="round"/>
<path d="M756.864 709.373V720.11" stroke="#FAFAFA" stroke-opacity="0.28" stroke-width="2" stroke-linecap="round" stroke-linejoin="round"/>
<path d="M761.78 714.741H751.94" stroke="#FAFAFA" stroke-opacity="0.28" stroke-width="2" stroke-linecap="round" stroke-linejoin="round"/>
<path d="M778.136 709.373V720.11" stroke="#FAFAFA" stroke-opacity="0.28" stroke-width="2" stroke-linecap="round" stroke-linejoin="round"/>
<path d="M783.052 714.741H773.213" stroke="#FAFAFA" stroke-opacity="0.28" stroke-width="2" stroke-linecap="round" stroke-linejoin="round"/>
<path d="M161.65 227.541V238.277" stroke="#00BCD4" stroke-width="2" stroke-linecap="round" stroke-linejoin="round"/>
<path d="M166.57 232.908H156.731" stroke="#00BCD4" stroke-width="2" stroke-linecap="round" stroke-linejoin="round"/>
<path d="M68.8904 180.771H59.051" stroke="#EAF1FD" stroke-width="2" stroke-linecap="round" stroke-linejoin="round"/>
<path d="M63.9716 186.14V175.403" stroke="#EAF1FD" stroke-width="2" stroke-linecap="round" stroke-linejoin="round"/>
<path d="M68.8904 203.986H59.051" stroke="#EAF1FD" stroke-width="2" stroke-linecap="round" stroke-linejoin="round"/>
<path d="M63.9716 209.353V198.616" stroke="#EAF1FD" stroke-width="2" stroke-linecap="round" stroke-linejoin="round"/>
<path d="M68.8904 227.199H59.051" stroke="#EAF1FD" stroke-width="2" stroke-linecap="round" stroke-linejoin="round"/>
<path d="M63.9716 232.568V221.831" stroke="#EAF1FD" stroke-width="2" stroke-linecap="round" stroke-linejoin="round"/>
<path d="M290.766 418.597C290.766 418.957 290.668 419.308 290.485 419.608C290.301 419.908 290.041 420.141 289.736 420.279C289.431 420.417 289.095 420.452 288.772 420.382C288.448 420.312 288.151 420.138 287.917 419.883C287.685 419.629 287.525 419.304 287.461 418.951C287.397 418.598 287.43 418.232 287.557 417.899C287.683 417.567 287.897 417.282 288.171 417.082C288.446 416.882 288.768 416.776 289.098 416.776C289.317 416.776 289.534 416.823 289.736 416.915C289.939 417.006 290.123 417.14 290.278 417.309C290.433 417.478 290.555 417.679 290.639 417.9C290.723 418.121 290.766 418.358 290.766 418.597Z" fill="#A2BADD"/>
<path d="M302.092 418.597C302.092 418.957 301.994 419.308 301.811 419.608C301.628 419.908 301.367 420.141 301.062 420.279C300.758 420.417 300.422 420.452 300.098 420.382C299.774 420.312 299.477 420.138 299.244 419.883C299.01 419.629 298.852 419.304 298.788 418.951C298.723 418.598 298.756 418.232 298.883 417.899C299.009 417.567 299.223 417.282 299.498 417.082C299.772 416.882 300.095 416.776 300.425 416.776C300.644 416.776 300.861 416.823 301.063 416.915C301.266 417.006 301.449 417.14 301.604 417.309C301.759 417.478 301.882 417.679 301.966 417.9C302.05 418.121 302.092 418.358 302.092 418.597Z" fill="#A2BADD"/>
<path d="M313.423 418.597C313.423 418.957 313.325 419.308 313.142 419.608C312.958 419.908 312.698 420.141 312.393 420.279C312.088 420.417 311.753 420.452 311.429 420.383C311.105 420.312 310.808 420.139 310.575 419.884C310.342 419.629 310.182 419.305 310.118 418.951C310.054 418.598 310.087 418.233 310.213 417.9C310.34 417.567 310.553 417.283 310.828 417.082C311.102 416.883 311.425 416.776 311.755 416.776C311.974 416.776 312.191 416.822 312.393 416.914C312.596 417.006 312.78 417.14 312.934 417.309C313.089 417.478 313.212 417.679 313.296 417.9C313.38 418.121 313.423 418.358 313.423 418.597Z" fill="#A2BADD"/>
<path d="M290.766 430.956C290.766 431.316 290.668 431.667 290.485 431.967C290.302 432.267 290.042 432.5 289.736 432.638C289.431 432.777 289.096 432.812 288.772 432.742C288.449 432.672 288.151 432.499 287.918 432.244C287.685 431.989 287.525 431.664 287.461 431.311C287.397 430.958 287.43 430.592 287.557 430.26C287.682 429.927 287.897 429.643 288.171 429.442C288.446 429.242 288.768 429.136 289.098 429.136C289.541 429.136 289.965 429.327 290.278 429.669C290.59 430.01 290.766 430.473 290.766 430.956Z" fill="#A2BADD"/>
<path d="M302.092 430.956C302.092 431.316 301.995 431.667 301.811 431.967C301.628 432.267 301.367 432.5 301.063 432.638C300.758 432.777 300.423 432.812 300.099 432.742C299.775 432.672 299.478 432.499 299.244 432.244C299.011 431.989 298.852 431.664 298.788 431.311C298.723 430.958 298.756 430.592 298.883 430.26C299.009 429.927 299.223 429.643 299.498 429.442C299.772 429.242 300.095 429.136 300.425 429.136C300.867 429.136 301.291 429.327 301.604 429.669C301.917 430.01 302.092 430.473 302.092 430.956Z" fill="#A2BADD"/>
<path d="M313.423 430.956C313.423 431.316 313.326 431.667 313.142 431.967C312.959 432.267 312.698 432.5 312.394 432.638C312.089 432.777 311.753 432.812 311.43 432.742C311.106 432.672 310.808 432.499 310.575 432.244C310.342 431.99 310.182 431.665 310.118 431.312C310.054 430.959 310.087 430.593 310.213 430.26C310.34 429.927 310.553 429.643 310.828 429.442C311.102 429.243 311.425 429.136 311.755 429.136C311.974 429.136 312.191 429.182 312.393 429.274C312.596 429.366 312.779 429.5 312.934 429.668C313.089 429.837 313.212 430.038 313.296 430.259C313.38 430.48 313.423 430.717 313.423 430.956Z" fill="#A2BADD"/>
<path d="M290.766 443.316C290.766 443.676 290.668 444.028 290.485 444.327C290.302 444.626 290.042 444.86 289.736 444.998C289.431 445.136 289.096 445.172 288.772 445.102C288.449 445.032 288.151 444.859 287.918 444.604C287.685 444.349 287.525 444.024 287.461 443.671C287.397 443.318 287.43 442.952 287.557 442.619C287.682 442.286 287.897 442.002 288.171 441.802C288.446 441.602 288.768 441.496 289.098 441.496C289.541 441.496 289.965 441.687 290.278 442.029C290.59 442.37 290.766 442.833 290.766 443.316Z" fill="#A2BADD"/>
<path d="M302.092 443.316C302.092 443.676 301.995 444.028 301.811 444.327C301.628 444.626 301.367 444.86 301.063 444.998C300.758 445.136 300.423 445.172 300.099 445.102C299.775 445.032 299.478 444.859 299.244 444.604C299.011 444.349 298.852 444.024 298.788 443.671C298.723 443.318 298.756 442.952 298.883 442.619C299.009 442.286 299.223 442.002 299.498 441.802C299.772 441.602 300.095 441.496 300.425 441.496C300.867 441.496 301.291 441.687 301.604 442.029C301.917 442.37 302.092 442.833 302.092 443.316Z" fill="#A2BADD"/>
<path d="M313.423 443.316C313.423 443.676 313.326 444.027 313.142 444.327C312.959 444.626 312.698 444.86 312.394 444.998C312.089 445.136 311.753 445.172 311.43 445.102C311.106 445.032 310.808 444.859 310.575 444.604C310.342 444.349 310.182 444.025 310.118 443.672C310.054 443.319 310.087 442.952 310.213 442.619C310.34 442.287 310.553 442.002 310.828 441.803C311.102 441.603 311.425 441.496 311.755 441.496C311.974 441.496 312.191 441.543 312.393 441.634C312.596 441.725 312.779 441.86 312.934 442.028C313.089 442.197 313.212 442.398 313.296 442.619C313.38 442.84 313.423 443.077 313.423 443.316Z" fill="#A2BADD"/>
<path d="M67.3395 35.179C67.3393 35.5359 67.2422 35.8848 67.0604 36.1815C66.8786 36.4781 66.6202 36.7094 66.318 36.8459C66.0158 36.9824 65.6833 37.0181 65.3625 36.9484C65.0417 36.8787 64.7471 36.7069 64.5158 36.4545C64.2845 36.2021 64.1269 35.8805 64.0631 35.5304C63.9992 35.1804 64.0319 34.8176 64.157 34.4877C64.2821 34.1579 64.494 33.876 64.7659 33.6776C65.0378 33.4792 65.3575 33.3732 65.6845 33.373C65.9019 33.3729 66.1172 33.4195 66.318 33.5103C66.5189 33.601 66.7014 33.734 66.855 33.9017C67.0087 34.0695 67.1306 34.2686 67.2137 34.4877C67.2969 34.7069 67.3396 34.9418 67.3395 35.179Z" fill="#A2BADD"/>
<path d="M76.9193 36.985C77.8335 36.985 78.5749 36.1764 78.5749 35.179C78.5749 34.1816 77.8335 33.373 76.9193 33.373C76.0058 33.373 75.2645 34.1816 75.2645 35.179C75.2645 36.1764 76.0058 36.985 76.9193 36.985Z" fill="#A2BADD"/>
<path d="M89.8081 35.179C89.8081 35.5362 89.7106 35.8853 89.5292 36.1823C89.3471 36.4793 89.0888 36.7107 88.7864 36.8474C88.4841 36.9842 88.1511 37.0199 87.8302 36.9503C87.5094 36.8806 87.2141 36.7086 86.9829 36.4559C86.7509 36.2034 86.5937 35.8816 86.5297 35.5313C86.4656 35.181 86.4991 34.8179 86.6243 34.4879C86.7495 34.1579 86.9615 33.8758 87.2333 33.6774C87.5058 33.479 87.826 33.373 88.1532 33.373C88.5922 33.373 89.0127 33.5634 89.3229 33.902C89.6338 34.2407 89.8081 34.7001 89.8081 35.179Z" fill="#A2BADD"/>
<path d="M101.045 35.179C101.045 35.5362 100.947 35.8853 100.766 36.1823C100.584 36.4793 100.326 36.7107 100.023 36.8474C99.7208 36.9842 99.3879 37.0199 99.067 36.9503C98.7461 36.8806 98.4509 36.7086 98.2197 36.4559C97.9877 36.2034 97.8305 35.8816 97.7665 35.5313C97.7024 35.181 97.7352 34.8179 97.8611 34.4879C97.9863 34.1579 98.1983 33.8758 98.4701 33.6774C98.7426 33.479 99.0627 33.373 99.39 33.373C99.607 33.373 99.8226 33.4198 100.023 33.5105C100.224 33.6013 100.406 33.7343 100.56 33.902C100.713 34.0697 100.836 34.2688 100.919 34.4879C101.002 34.707 101.045 34.9418 101.045 35.179Z" fill="#A2BADD"/>
<path d="M110.625 36.985C111.539 36.985 112.279 36.1764 112.279 35.179C112.279 34.1816 111.539 33.373 110.625 33.373C109.711 33.373 108.97 34.1816 108.97 35.179C108.97 36.1764 109.711 36.985 110.625 36.985Z" fill="#A2BADD"/>
<path d="M123.514 35.179C123.514 35.5362 123.417 35.8853 123.235 36.1823C123.053 36.4793 122.795 36.7107 122.492 36.8474C122.19 36.9842 121.857 37.0199 121.536 36.9503C121.215 36.8806 120.92 36.7086 120.689 36.4559C120.457 36.2034 120.3 35.8816 120.236 35.5313C120.172 35.181 120.204 34.8179 120.33 34.4879C120.455 34.1579 120.668 33.8758 120.939 33.6774C121.212 33.479 121.531 33.373 121.859 33.373C122.076 33.3729 122.292 33.4195 122.492 33.5103C122.693 33.601 122.876 33.734 123.03 33.9017C123.183 34.0695 123.305 34.2686 123.388 34.4877C123.471 34.7069 123.514 34.9418 123.514 35.179Z" fill="#A2BADD"/>
<path d="M134.748 35.179C134.748 35.5362 134.651 35.8853 134.469 36.1823C134.288 36.4793 134.029 36.7107 133.726 36.8474C133.424 36.9842 133.091 37.0199 132.77 36.9503C132.449 36.8806 132.155 36.7086 131.923 36.4559C131.692 36.2034 131.534 35.8816 131.47 35.5313C131.406 35.181 131.439 34.8179 131.564 34.4879C131.69 34.1579 131.902 33.8758 132.174 33.6774C132.446 33.479 132.766 33.373 133.093 33.373C133.311 33.3729 133.526 33.4195 133.726 33.5103C133.928 33.601 134.11 33.734 134.264 33.9017C134.417 34.0695 134.54 34.2686 134.622 34.4877C134.705 34.7069 134.748 34.9418 134.748 35.179Z" fill="#A2BADD"/>
<path d="M67.3395 47.4393C67.3393 47.7962 67.2422 48.1451 67.0604 48.4418C66.8786 48.7385 66.6202 48.9697 66.318 49.1062C66.0158 49.2427 65.6833 49.2783 65.3625 49.2087C65.0417 49.139 64.7471 48.9671 64.5158 48.7147C64.2845 48.4623 64.1269 48.1408 64.0631 47.7908C63.9992 47.4407 64.0319 47.0778 64.157 46.748C64.2821 46.4183 64.494 46.1363 64.7659 45.9379C65.0378 45.7395 65.3575 45.6335 65.6845 45.6333C66.1235 45.6333 66.5444 45.8236 66.8548 46.1623C67.1651 46.5009 67.3395 46.9603 67.3395 47.4393Z" fill="#A2BADD"/>
<path d="M78.5749 47.4393C78.5749 47.7964 78.4774 48.1456 78.296 48.4426C78.1138 48.7396 77.8556 48.9711 77.5532 49.1078C77.2508 49.2444 76.9179 49.2802 76.597 49.2105C76.2754 49.1408 75.9809 48.9688 75.7497 48.7163C75.5177 48.4637 75.3605 48.1419 75.2965 47.7916C75.2324 47.4413 75.2652 47.0781 75.3904 46.7482C75.5156 46.4182 75.7283 46.1361 76.0001 45.9377C76.2726 45.7392 76.592 45.6333 76.9193 45.6333C77.3583 45.6335 77.7795 45.8239 78.0896 46.1625C78.3998 46.5012 78.5741 46.9604 78.5749 47.4393Z" fill="#A2BADD"/>
<path d="M89.8081 47.4393C89.8081 47.7964 89.7106 48.1456 89.5292 48.4426C89.3471 48.7396 89.0888 48.9711 88.7864 49.1078C88.4841 49.2444 88.1511 49.2802 87.8302 49.2105C87.5094 49.1408 87.2141 48.9688 86.9829 48.7163C86.7509 48.4637 86.5937 48.1419 86.5297 47.7916C86.4656 47.4413 86.4991 47.0781 86.6243 46.7482C86.7495 46.4182 86.9615 46.1361 87.2333 45.9377C87.5058 45.7392 87.826 45.6333 88.1532 45.6333C88.5915 45.6335 89.0127 45.8239 89.3229 46.1625C89.6331 46.5012 89.8074 46.9604 89.8081 47.4393Z" fill="#A2BADD"/>
<path d="M101.045 47.4393C101.045 47.7964 100.947 48.1456 100.766 48.4426C100.584 48.7396 100.326 48.9711 100.023 49.1078C99.7208 49.2444 99.3879 49.2802 99.067 49.2105C98.7461 49.1408 98.4509 48.9688 98.2197 48.7163C97.9877 48.4637 97.8305 48.1419 97.7665 47.7916C97.7024 47.4413 97.7352 47.0781 97.8611 46.7482C97.9863 46.4182 98.1983 46.1361 98.4701 45.9377C98.7426 45.7392 99.0627 45.6333 99.39 45.6333C99.8283 45.6335 100.249 45.8239 100.56 46.1625C100.87 46.5012 101.044 46.9604 101.045 47.4393Z" fill="#A2BADD"/>
<path d="M112.279 47.4393C112.279 47.7965 112.182 48.1457 112 48.4427C111.818 48.7397 111.56 48.9712 111.257 49.1078C110.955 49.2445 110.622 49.2802 110.301 49.2104C109.979 49.1407 109.685 48.9686 109.454 48.716C109.222 48.4633 109.064 48.1414 109 47.7911C108.937 47.4407 108.97 47.0775 109.095 46.7476C109.22 46.4176 109.433 46.1356 109.705 45.9372C109.977 45.7389 110.297 45.6331 110.625 45.6333C111.064 45.6335 111.484 45.8239 111.794 46.1626C112.104 46.5012 112.279 46.9605 112.279 47.4393Z" fill="#A2BADD"/>
<path d="M123.514 47.4393C123.514 47.7964 123.417 48.1456 123.235 48.4426C123.053 48.7396 122.795 48.9711 122.492 49.1078C122.19 49.2444 121.857 49.2802 121.536 49.2105C121.215 49.1408 120.92 48.9688 120.689 48.7163C120.457 48.4637 120.3 48.1419 120.236 47.7916C120.172 47.4413 120.204 47.0781 120.33 46.7482C120.455 46.4182 120.668 46.1361 120.939 45.9377C121.212 45.7392 121.531 45.6333 121.859 45.6333C122.298 45.6333 122.719 45.8236 123.029 46.1623C123.34 46.5009 123.514 46.9603 123.514 47.4393Z" fill="#A2BADD"/>
<path d="M134.748 47.4393C134.748 47.7964 134.651 48.1456 134.469 48.4426C134.288 48.7396 134.029 48.9711 133.726 49.1078C133.424 49.2444 133.091 49.2802 132.77 49.2105C132.449 49.1408 132.155 48.9688 131.923 48.7163C131.692 48.4637 131.534 48.1419 131.47 47.7916C131.406 47.4413 131.439 47.0781 131.564 46.7482C131.69 46.4182 131.902 46.1361 132.174 45.9377C132.446 45.7392 132.766 45.6333 133.093 45.6333C133.532 45.6333 133.953 45.8236 134.264 46.1623C134.574 46.5009 134.748 46.9603 134.748 47.4393Z" fill="#A2BADD"/>
<path d="M67.3395 59.6992C67.3387 60.056 67.241 60.4045 67.0588 60.7007C66.8766 60.9969 66.618 61.2276 66.3157 61.3636C66.0134 61.4995 65.6811 61.5347 65.3605 61.4646C65.0399 61.3945 64.7456 61.2223 64.5146 60.9698C64.2836 60.7173 64.1265 60.3957 64.0629 60.0458C63.9992 59.6958 64.0321 59.3332 64.1573 59.0035C64.2825 58.6739 64.4944 58.3923 64.7662 58.194C65.038 57.9957 65.3576 57.8899 65.6845 57.8896C65.9022 57.8896 66.1176 57.9365 66.3187 58.0275C66.5197 58.1184 66.7022 58.2518 66.856 58.4199C67.0097 58.588 67.1315 58.7875 67.2145 59.007C67.2975 59.2265 67.34 59.4618 67.3395 59.6992Z" fill="#A2BADD"/>
<path d="M78.5749 59.6992C78.5741 60.0563 78.476 60.4051 78.2938 60.7015C78.1117 60.9981 77.8534 61.229 77.5504 61.3651C77.248 61.5012 76.9157 61.5365 76.5949 61.4664C76.274 61.3963 75.9795 61.224 75.7482 60.9713C75.517 60.7186 75.3598 60.3968 75.2965 60.0466C75.2324 59.6964 75.2659 59.3335 75.3911 59.0037C75.5163 58.6739 75.7283 58.392 76.0008 58.1938C76.2726 57.9955 76.5927 57.8896 76.9193 57.8896C77.137 57.8898 77.3526 57.9367 77.5539 58.0277C77.7545 58.1188 77.9374 58.2521 78.0911 58.4201C78.2447 58.5882 78.3664 58.7877 78.4496 59.0071C78.5322 59.2266 78.5749 59.4618 78.5749 59.6992Z" fill="#A2BADD"/>
<path d="M89.8081 59.6992C89.8074 60.0563 89.7099 60.4052 89.5271 60.7018C89.3449 60.9983 89.086 61.2292 88.7836 61.3653C88.4812 61.5014 88.1482 61.5365 87.8274 61.4662C87.5065 61.3961 87.212 61.2236 86.9807 60.9707C86.7502 60.7178 86.593 60.3958 86.5297 60.0455C86.4657 59.6951 86.4991 59.3321 86.625 59.0024C86.7502 58.6727 86.963 58.3909 87.2347 58.1929C87.5072 57.9948 87.8274 57.8893 88.1546 57.8896C88.3724 57.89 88.5872 57.9371 88.7878 58.0283C88.9885 58.1194 89.1713 58.2527 89.325 58.4208C89.478 58.5889 89.5996 58.7882 89.6829 59.0076C89.7654 59.2269 89.8081 59.4619 89.8081 59.6992Z" fill="#A2BADD"/>
<path d="M101.045 59.6992C101.044 60.0563 100.947 60.4051 100.764 60.7015C100.582 60.9981 100.323 61.229 100.021 61.3651C99.718 61.5012 99.3857 61.5365 99.0649 61.4664C98.744 61.3963 98.4495 61.224 98.2182 60.9713C97.987 60.7186 97.8298 60.3968 97.7665 60.0466C97.7024 59.6964 97.7359 59.3335 97.8611 59.0037C97.9863 58.6739 98.1983 58.392 98.4708 58.1938C98.7426 57.9955 99.0627 57.8896 99.39 57.8896C99.607 57.8898 99.8226 57.9367 100.024 58.0277C100.225 58.1188 100.407 58.2521 100.561 58.4201C100.715 58.5882 100.836 58.7877 100.92 59.0071C101.002 59.2266 101.045 59.4618 101.045 59.6992Z" fill="#A2BADD"/>
<path d="M112.279 59.6992C112.278 60.0563 112.181 60.4051 111.998 60.7016C111.816 60.9982 111.557 61.2291 111.255 61.3652C110.952 61.5013 110.62 61.5365 110.299 61.4663C109.978 61.3962 109.683 61.2238 109.452 60.971C109.221 60.7182 109.064 60.3964 109 60.046C108.937 59.6958 108.97 59.3328 109.096 59.0031C109.221 58.6733 109.433 58.3915 109.705 58.1933C109.977 57.9952 110.297 57.8895 110.625 57.8896C110.842 57.8898 111.058 57.9367 111.259 58.0277C111.459 58.1188 111.642 58.2522 111.796 58.4202C111.949 58.5882 112.071 58.7878 112.154 59.0072C112.237 59.2267 112.28 59.4618 112.279 59.6992Z" fill="#A2BADD"/>
<path d="M123.514 59.6989C123.514 60.0562 123.417 60.4053 123.235 60.7023C123.053 60.9993 122.795 61.2308 122.492 61.3674C122.19 61.5041 121.857 61.5399 121.536 61.4702C121.215 61.4005 120.92 61.2285 120.689 60.976C120.457 60.7234 120.3 60.4016 120.236 60.0513C120.172 59.701 120.204 59.3379 120.33 59.0079C120.455 58.6779 120.668 58.3958 120.939 58.1974C121.212 57.9989 121.531 57.8931 121.859 57.8931C122.298 57.8931 122.719 58.0833 123.029 58.422C123.34 58.7607 123.514 59.22 123.514 59.6989Z" fill="#A2BADD"/>
<path d="M134.748 59.6989C134.748 60.0562 134.651 60.4053 134.469 60.7023C134.288 60.9993 134.029 61.2308 133.726 61.3674C133.424 61.5041 133.091 61.5399 132.77 61.4702C132.449 61.4005 132.155 61.2285 131.923 60.976C131.692 60.7234 131.534 60.4016 131.47 60.0513C131.406 59.701 131.439 59.3379 131.564 59.0079C131.69 58.6779 131.902 58.3958 132.174 58.1974C132.446 57.9989 132.766 57.8931 133.093 57.8931C133.532 57.8931 133.953 58.0833 134.264 58.422C134.574 58.7607 134.748 59.22 134.748 59.6989Z" fill="#A2BADD"/>
<path d="M67.3395 71.9593C67.3393 72.3162 67.2422 72.6651 67.0604 72.9614C66.8786 73.2587 66.6202 73.4899 66.318 73.6265C66.0158 73.7623 65.6833 73.7981 65.3625 73.729C65.0417 73.6591 64.7471 73.4868 64.5158 73.2346C64.2845 72.9823 64.1269 72.6608 64.0631 72.3107C63.9992 71.9607 64.0319 71.5978 64.157 71.268C64.2821 70.9382 64.494 70.6563 64.7659 70.4579C65.0378 70.2595 65.3575 70.1535 65.6845 70.1533C65.9019 70.1532 66.1172 70.1998 66.318 70.2905C66.5189 70.3813 66.7014 70.5143 66.855 70.682C67.0087 70.8497 67.1306 71.0489 67.2137 71.268C67.2969 71.4872 67.3396 71.7221 67.3395 71.9593Z" fill="#A2BADD"/>
<path d="M78.5749 71.9593C78.5749 72.3164 78.4774 72.6656 78.296 72.963C78.1138 73.2594 77.8556 73.4907 77.5532 73.6281C77.2508 73.7647 76.9179 73.8004 76.597 73.7305C76.2754 73.6607 75.9809 73.4892 75.7497 73.2361C75.5177 72.9839 75.3605 72.6619 75.2965 72.3116C75.2324 71.9613 75.2652 71.5981 75.3904 71.2681C75.5156 70.9381 75.7283 70.6561 76.0001 70.4576C76.2726 70.2593 76.592 70.1533 76.9193 70.1533C77.3583 70.1533 77.7795 70.3435 78.0896 70.6822C78.4006 71.0209 78.5749 71.4803 78.5749 71.9593Z" fill="#A2BADD"/>
<path d="M89.8081 71.9593C89.8081 72.3164 89.7106 72.6656 89.5292 72.963C89.3471 73.2594 89.0888 73.4907 88.7864 73.6281C88.4841 73.7647 88.1511 73.8004 87.8302 73.7305C87.5094 73.6607 87.2141 73.4892 86.9829 73.2361C86.7509 72.9839 86.5937 72.6619 86.5297 72.3116C86.4656 71.9613 86.4991 71.5981 86.6243 71.2681C86.7495 70.9381 86.9615 70.6561 87.2333 70.4576C87.5058 70.2593 87.826 70.1533 88.1532 70.1533C88.5922 70.1533 89.0127 70.3435 89.3229 70.6822C89.6338 71.0209 89.8081 71.4803 89.8081 71.9593Z" fill="#A2BADD"/>
<path d="M101.045 71.9593C101.045 72.3164 100.947 72.6656 100.766 72.963C100.584 73.2594 100.326 73.4907 100.023 73.6281C99.7208 73.7647 99.3879 73.8004 99.067 73.7305C98.7461 73.6607 98.4509 73.4892 98.2197 73.2361C97.9877 72.9839 97.8305 72.6619 97.7665 72.3116C97.7024 71.9613 97.7352 71.5981 97.8611 71.2681C97.9863 70.9381 98.1983 70.6561 98.4701 70.4576C98.7426 70.2593 99.0627 70.1533 99.39 70.1533C99.607 70.1533 99.8226 70.2 100.023 70.2908C100.224 70.3816 100.406 70.5146 100.56 70.6822C100.713 70.85 100.836 71.049 100.919 71.2681C101.002 71.4872 101.045 71.7221 101.045 71.9593Z" fill="#A2BADD"/>
<path d="M112.279 71.9593C112.279 72.3164 112.182 72.6657 112 72.963C111.818 73.2594 111.56 73.4915 111.257 73.6281C110.955 73.7647 110.622 73.8004 110.301 73.7305C109.979 73.6607 109.685 73.4884 109.454 73.2361C109.222 72.9831 109.064 72.6614 109 72.311C108.937 71.9607 108.97 71.5975 109.095 71.2675C109.22 70.9375 109.433 70.6555 109.705 70.4573C109.977 70.2589 110.297 70.1532 110.625 70.1533C110.842 70.1533 111.057 70.2 111.258 70.2908C111.458 70.3816 111.641 70.5146 111.794 70.6823C111.948 70.85 112.07 71.0491 112.153 71.2682C112.236 71.4873 112.279 71.7222 112.279 71.9593Z" fill="#A2BADD"/>
<path d="M123.514 71.9593C123.514 72.3164 123.417 72.6656 123.235 72.963C123.053 73.2594 122.795 73.4907 122.492 73.6281C122.19 73.7647 121.857 73.8004 121.536 73.7305C121.215 73.6607 120.92 73.4892 120.689 73.2361C120.457 72.9839 120.3 72.6619 120.236 72.3116C120.172 71.9613 120.204 71.5981 120.33 71.2681C120.455 70.9381 120.668 70.6561 120.939 70.4576C121.212 70.2593 121.531 70.1533 121.859 70.1533C122.076 70.1532 122.292 70.1998 122.492 70.2905C122.693 70.3813 122.876 70.5143 123.03 70.682C123.183 70.8497 123.305 71.0489 123.388 71.268C123.471 71.4872 123.514 71.7221 123.514 71.9593Z" fill="#A2BADD"/>
<path d="M134.748 71.9593C134.748 72.3164 134.651 72.6656 134.469 72.963C134.288 73.2594 134.029 73.4907 133.726 73.6281C133.424 73.7647 133.091 73.8004 132.77 73.7305C132.449 73.6607 132.155 73.4892 131.923 73.2361C131.692 72.9839 131.534 72.6619 131.47 72.3116C131.406 71.9613 131.439 71.5981 131.564 71.2681C131.69 70.9381 131.902 70.6561 132.174 70.4576C132.446 70.2593 132.766 70.1533 133.093 70.1533C133.311 70.1532 133.526 70.1998 133.726 70.2905C133.928 70.3813 134.11 70.5143 134.264 70.682C134.417 70.8497 134.54 71.0489 134.622 71.268C134.705 71.4872 134.748 71.7221 134.748 71.9593Z" fill="#A2BADD"/>
<path d="M67.3395 84.2181C67.3395 84.5751 67.2425 84.9243 67.0608 85.2208C66.8791 85.5181 66.6208 85.7493 66.3186 85.8859C66.0163 86.0225 65.6838 86.0582 65.363 85.9884C65.0422 85.9193 64.7474 85.747 64.516 85.4948C64.2847 85.2425 64.1271 84.9212 64.0631 84.5712C63.9992 84.2212 64.0319 83.8579 64.1569 83.5281C64.282 83.1982 64.4939 82.9165 64.7658 82.7178C65.0377 82.5191 65.3574 82.4136 65.6845 82.4136C65.9018 82.4128 66.117 82.4594 66.3178 82.5502C66.5186 82.641 66.7011 82.7737 66.8547 82.9413C67.0084 83.109 67.1304 83.3085 67.2135 83.5273C67.2967 83.7462 67.3395 83.9813 67.3395 84.2181Z" fill="#A2BADD"/>
<path d="M76.9193 86.0249C77.8335 86.0249 78.5749 85.2169 78.5749 84.2188C78.5749 83.2215 77.8335 82.4136 76.9193 82.4136C76.0058 82.4136 75.2645 83.2215 75.2645 84.2188C75.2645 85.2169 76.0058 86.0249 76.9193 86.0249Z" fill="#A2BADD"/>
<path d="M89.8081 84.2181C89.8081 84.5758 89.7113 84.9251 89.5292 85.2216C89.3478 85.5188 89.0895 85.7509 88.7871 85.8875C88.4848 86.0241 88.1518 86.0598 87.8309 85.9907C87.5094 85.9209 87.2148 85.7493 86.9829 85.4963C86.7517 85.2441 86.5937 84.922 86.5297 84.572C86.4656 84.2212 86.4984 83.8579 86.6236 83.5281C86.7488 83.1982 86.9615 82.9157 87.2333 82.7178C87.5058 82.5191 87.826 82.4136 88.1532 82.4136C88.5915 82.4136 89.0127 82.6037 89.3229 82.9421C89.6331 83.2805 89.8074 83.7392 89.8081 84.2181Z" fill="#A2BADD"/>
<path d="M101.045 84.2181C101.045 84.5758 100.948 84.9251 100.766 85.2216C100.585 85.5188 100.326 85.7509 100.024 85.8875C99.7215 86.0241 99.3886 86.0598 99.067 85.9907C98.7461 85.9209 98.4516 85.7493 98.2197 85.4963C97.9884 85.2441 97.8305 84.922 97.7665 84.572C97.7024 84.2212 97.7352 83.8579 97.8604 83.5281C97.9856 83.1982 98.1983 82.9157 98.4701 82.7178C98.7426 82.5191 99.062 82.4136 99.39 82.4136C99.8283 82.4136 100.249 82.6037 100.56 82.9421C100.87 83.2805 101.044 83.7392 101.045 84.2181Z" fill="#A2BADD"/>
<path d="M110.625 86.0249C111.539 86.0249 112.279 85.2169 112.279 84.2188C112.279 83.2215 111.539 82.4136 110.625 82.4136C109.711 82.4136 108.97 83.2215 108.97 84.2188C108.97 85.2169 109.711 86.0249 110.625 86.0249Z" fill="#A2BADD"/>
<path d="M123.514 84.2181C123.514 84.5759 123.417 84.9251 123.235 85.2216C123.054 85.5188 122.796 85.7509 122.493 85.8875C122.191 86.0241 121.858 86.0598 121.537 85.9907C121.215 85.9209 120.921 85.7493 120.689 85.4963C120.458 85.2441 120.3 84.922 120.236 84.572C120.172 84.2212 120.204 83.8579 120.33 83.5281C120.455 83.1982 120.668 82.9157 120.939 82.7178C121.212 82.5191 121.531 82.4136 121.859 82.4136C122.076 82.4128 122.291 82.4594 122.492 82.5502C122.693 82.641 122.875 82.7737 123.029 82.9413C123.183 83.109 123.305 83.3085 123.388 83.5273C123.471 83.7462 123.514 83.9813 123.514 84.2181Z" fill="#A2BADD"/>
<path d="M134.748 84.2181C134.748 84.5759 134.651 84.9251 134.47 85.2216C134.288 85.5188 134.03 85.7509 133.727 85.8875C133.425 86.0241 133.092 86.0598 132.771 85.9907C132.45 85.9209 132.155 85.7493 131.924 85.4963C131.692 85.2441 131.534 84.922 131.47 84.572C131.406 84.2212 131.439 83.8579 131.564 83.5281C131.69 83.1982 131.902 82.9157 132.174 82.7178C132.446 82.5191 132.766 82.4136 133.093 82.4136C133.31 82.4128 133.526 82.4594 133.726 82.5502C133.927 82.641 134.11 82.7737 134.264 82.9413C134.417 83.109 134.539 83.3085 134.622 83.5273C134.705 83.7462 134.748 83.9813 134.748 84.2181Z" fill="#A2BADD"/>
<path d="M959.871 240.661C959.871 240.981 959.786 241.293 959.622 241.559C959.458 241.824 959.231 242.031 958.96 242.154C958.69 242.276 958.391 242.309 958.107 242.246C957.815 242.184 957.552 242.03 957.345 241.803C957.139 241.577 956.997 241.289 956.94 240.976C956.883 240.662 956.911 240.338 957.025 240.042C957.139 239.747 957.324 239.495 957.573 239.317C957.815 239.14 958.099 239.045 958.391 239.045C958.782 239.045 959.16 239.215 959.437 239.518C959.715 239.821 959.871 240.232 959.871 240.661Z" fill="#A2BADD"/>
<path d="M968.444 242.277C969.262 242.277 969.924 241.553 969.924 240.661C969.924 239.768 969.262 239.045 968.444 239.045C967.626 239.045 966.964 239.768 966.964 240.661C966.964 241.553 967.626 242.277 968.444 242.277Z" fill="#A2BADD"/>
<path d="M979.977 240.661C979.977 240.981 979.892 241.293 979.728 241.559C979.564 241.825 979.337 242.031 979.066 242.154C978.796 242.277 978.497 242.309 978.213 242.246C977.921 242.184 977.658 242.029 977.451 241.803C977.245 241.577 977.103 241.289 977.046 240.976C976.989 240.662 977.017 240.337 977.131 240.042C977.245 239.747 977.43 239.494 977.679 239.317C977.921 239.14 978.205 239.045 978.497 239.045C978.696 239.045 978.888 239.087 979.066 239.168C979.244 239.249 979.408 239.369 979.543 239.518C979.685 239.668 979.792 239.847 979.87 240.042C979.941 240.239 979.977 240.449 979.977 240.661Z" fill="#A2BADD"/>
<path d="M990.03 240.661C990.03 240.981 989.944 241.293 989.781 241.559C989.617 241.824 989.39 242.031 989.119 242.154C988.849 242.276 988.55 242.309 988.265 242.246C987.974 242.184 987.71 242.03 987.504 241.803C987.298 241.577 987.156 241.289 987.099 240.976C987.042 240.662 987.07 240.338 987.184 240.042C987.298 239.747 987.483 239.495 987.732 239.317C987.974 239.14 988.258 239.045 988.55 239.045C988.749 239.045 988.941 239.087 989.119 239.168C989.297 239.249 989.461 239.368 989.603 239.518C989.738 239.668 989.845 239.847 989.923 240.042C989.994 240.239 990.03 240.449 990.03 240.661Z" fill="#A2BADD"/>
<path d="M998.603 242.277C999.421 242.277 1000.09 241.553 1000.09 240.661C1000.09 239.768 999.421 239.045 998.603 239.045C997.785 239.045 997.123 239.768 997.123 240.661C997.123 241.553 997.785 242.277 998.603 242.277Z" fill="#A2BADD"/>
<path d="M1010.14 240.661C1010.14 240.981 1010.05 241.293 1009.89 241.559C1009.73 241.824 1009.5 242.031 1009.23 242.154C1008.95 242.276 1008.66 242.309 1008.37 242.246C1008.08 242.184 1007.82 242.03 1007.61 241.803C1007.4 241.577 1007.26 241.289 1007.2 240.976C1007.15 240.662 1007.18 240.338 1007.29 240.042C1007.4 239.747 1007.6 239.495 1007.84 239.317C1008.08 239.14 1008.36 239.045 1008.66 239.045C1009.05 239.045 1009.43 239.215 1009.71 239.518C1009.99 239.821 1010.14 240.232 1010.14 240.661Z" fill="#A2BADD"/>
<path d="M1020.2 240.661C1020.2 240.981 1020.1 241.293 1019.95 241.559C1019.78 241.824 1019.55 242.031 1019.28 242.154C1019.01 242.276 1018.71 242.309 1018.42 242.246C1018.14 242.184 1017.87 242.03 1017.66 241.803C1017.46 241.577 1017.31 241.289 1017.26 240.976C1017.2 240.662 1017.23 240.338 1017.34 240.042C1017.46 239.747 1017.65 239.495 1017.89 239.317C1018.13 239.14 1018.42 239.045 1018.72 239.045C1019.11 239.045 1019.48 239.215 1019.76 239.518C1020.04 239.821 1020.2 240.232 1020.2 240.661Z" fill="#A2BADD"/>
<path d="M969.924 251.632C969.924 251.951 969.839 252.264 969.675 252.529C969.511 252.795 969.284 253.002 969.013 253.124C968.743 253.247 968.444 253.279 968.16 253.217C967.868 253.155 967.605 253 967.398 252.774C967.192 252.548 967.05 252.26 966.993 251.947C966.936 251.633 966.964 251.308 967.078 251.013C967.192 250.718 967.377 250.465 967.626 250.288C967.868 250.111 968.152 250.015 968.444 250.015C968.835 250.016 969.213 250.186 969.49 250.489C969.768 250.792 969.924 251.203 969.924 251.632Z" fill="#A2BADD"/>
<path d="M979.977 251.632C979.977 251.952 979.892 252.264 979.728 252.53C979.564 252.795 979.337 253.002 979.066 253.124C978.796 253.247 978.497 253.279 978.213 253.217C977.921 253.154 977.658 253 977.451 252.774C977.245 252.548 977.103 252.26 977.046 251.946C976.989 251.633 977.017 251.308 977.131 251.012C977.245 250.718 977.43 250.465 977.679 250.288C977.921 250.11 978.205 250.015 978.497 250.015C978.896 250.016 979.266 250.186 979.543 250.489C979.82 250.792 979.977 251.203 979.977 251.632Z" fill="#A2BADD"/>
<path d="M990.03 251.632C990.03 251.951 989.944 252.264 989.781 252.529C989.617 252.795 989.39 253.002 989.119 253.124C988.849 253.247 988.55 253.279 988.265 253.217C987.974 253.155 987.71 253 987.504 252.774C987.298 252.548 987.156 252.26 987.099 251.947C987.042 251.633 987.07 251.308 987.184 251.013C987.298 250.718 987.483 250.465 987.732 250.288C987.974 250.111 988.258 250.015 988.55 250.015C988.941 250.015 989.318 250.186 989.596 250.489C989.88 250.792 990.03 251.203 990.03 251.632Z" fill="#A2BADD"/>
<path d="M1000.09 251.632C1000.09 251.951 999.997 252.264 999.834 252.529C999.677 252.795 999.442 253.002 999.172 253.124C998.902 253.247 998.603 253.279 998.318 253.217C998.026 253.155 997.763 253 997.557 252.774C997.351 252.548 997.208 252.26 997.152 251.947C997.095 251.633 997.123 251.308 997.237 251.013C997.351 250.718 997.543 250.465 997.785 250.288C998.026 250.111 998.311 250.015 998.603 250.015C999.001 250.015 999.378 250.186 999.656 250.489C999.933 250.792 1000.09 251.203 1000.09 251.632Z" fill="#A2BADD"/>
<path d="M1010.14 251.632C1010.14 251.951 1010.05 252.264 1009.89 252.529C1009.73 252.795 1009.5 253.002 1009.23 253.124C1008.95 253.247 1008.66 253.279 1008.37 253.217C1008.08 253.155 1007.82 253 1007.61 252.774C1007.4 252.548 1007.26 252.26 1007.2 251.947C1007.15 251.633 1007.18 251.308 1007.29 251.013C1007.4 250.718 1007.6 250.465 1007.84 250.288C1008.08 250.111 1008.36 250.015 1008.66 250.015C1009.05 250.016 1009.43 250.186 1009.71 250.489C1009.99 250.792 1010.14 251.203 1010.14 251.632Z" fill="#A2BADD"/>
<path d="M1020.2 251.632C1020.2 251.951 1020.1 252.264 1019.95 252.529C1019.78 252.795 1019.55 253.002 1019.28 253.124C1019.01 253.247 1018.71 253.279 1018.42 253.217C1018.14 253.155 1017.87 253 1017.66 252.774C1017.46 252.548 1017.31 252.26 1017.26 251.947C1017.2 251.633 1017.23 251.308 1017.34 251.013C1017.46 250.718 1017.65 250.465 1017.89 250.288C1018.13 250.111 1018.42 250.015 1018.72 250.015C1019.11 250.016 1019.48 250.186 1019.76 250.489C1020.04 250.792 1020.2 251.203 1020.2 251.632Z" fill="#A2BADD"/>
<path d="M1030.25 251.632C1030.25 251.952 1030.16 252.264 1030 252.53C1029.84 252.795 1029.6 253.002 1029.33 253.124C1029.06 253.247 1028.76 253.279 1028.48 253.217C1028.19 253.154 1027.92 253 1027.72 252.774C1027.51 252.548 1027.37 252.26 1027.31 251.946C1027.25 251.633 1027.29 251.308 1027.4 251.012C1027.51 250.718 1027.7 250.465 1027.94 250.288C1028.19 250.11 1028.47 250.015 1028.77 250.015C1029.16 250.016 1029.54 250.186 1029.81 250.489C1030.09 250.792 1030.25 251.203 1030.25 251.632Z" fill="#A2BADD"/>
<path d="M1032.78 677.416C1032.78 678.309 1032.54 679.182 1032.08 679.925C1031.63 680.668 1030.98 681.247 1030.22 681.588C1029.47 681.93 1028.63 682.019 1027.83 681.844C1027.03 681.67 1026.29 681.24 1025.71 680.608C1025.13 679.975 1024.74 679.17 1024.58 678.294C1024.42 677.418 1024.5 676.51 1024.81 675.684C1025.13 674.858 1025.66 674.153 1026.34 673.657C1027.02 673.16 1027.82 672.896 1028.64 672.896C1029.18 672.896 1029.72 673.013 1030.23 673.239C1030.73 673.467 1031.18 673.8 1031.56 674.22C1031.96 674.639 1032.25 675.138 1032.47 675.686C1032.67 676.234 1032.78 676.822 1032.78 677.416Z" stroke="#DFEAFC" stroke-miterlimit="10"/>
<path d="M1060.9 677.416C1060.9 678.309 1060.66 679.183 1060.2 679.926C1059.75 680.67 1059.1 681.249 1058.34 681.591C1057.58 681.933 1056.75 682.023 1055.95 681.848C1055.14 681.673 1054.4 681.243 1053.83 680.611C1053.24 679.979 1052.85 679.174 1052.69 678.297C1052.53 677.42 1052.62 676.511 1052.93 675.686C1053.24 674.86 1053.77 674.154 1054.45 673.657C1055.14 673.161 1055.93 672.896 1056.76 672.896C1057.85 672.896 1058.91 673.372 1059.68 674.22C1060.46 675.067 1060.9 676.217 1060.9 677.416Z" stroke="#DFEAFC" stroke-miterlimit="10"/>
<path d="M1089.01 677.416C1089.01 678.309 1088.77 679.183 1088.31 679.926C1087.86 680.67 1087.21 681.249 1086.45 681.591C1085.7 681.933 1084.86 682.023 1084.06 681.848C1083.26 681.673 1082.52 681.243 1081.94 680.611C1081.36 679.979 1080.97 679.174 1080.8 678.297C1080.65 677.42 1080.73 676.511 1081.04 675.686C1081.35 674.86 1081.89 674.154 1082.57 673.657C1083.25 673.161 1084.05 672.896 1084.87 672.896C1085.42 672.896 1085.95 673.012 1086.45 673.239C1086.96 673.466 1087.41 673.799 1087.8 674.219C1088.18 674.639 1088.49 675.137 1088.69 675.686C1088.9 676.234 1089.01 676.822 1089.01 677.416Z" stroke="#DFEAFC" stroke-miterlimit="10"/>
<path d="M1032.78 708.094C1032.78 708.988 1032.54 709.861 1032.08 710.604C1031.63 711.347 1030.98 711.926 1030.22 712.267C1029.47 712.609 1028.63 712.698 1027.83 712.523C1027.03 712.349 1026.29 711.919 1025.71 711.286C1025.13 710.655 1024.74 709.85 1024.58 708.973C1024.42 708.097 1024.5 707.188 1024.81 706.363C1025.13 705.538 1025.66 704.832 1026.34 704.336C1027.02 703.839 1027.82 703.575 1028.64 703.575C1029.18 703.575 1029.72 703.691 1030.23 703.919C1030.73 704.146 1031.18 704.479 1031.56 704.899C1031.96 705.318 1032.25 705.816 1032.47 706.365C1032.67 706.913 1032.78 707.501 1032.78 708.094Z" stroke="#DFEAFC" stroke-miterlimit="10"/>
<path d="M1060.9 708.094C1060.9 708.988 1060.66 709.862 1060.2 710.606C1059.75 711.348 1059.1 711.928 1058.34 712.27C1057.58 712.612 1056.75 712.702 1055.95 712.527C1055.14 712.353 1054.4 711.923 1053.83 711.29C1053.24 710.658 1052.85 709.853 1052.69 708.976C1052.53 708.099 1052.62 707.191 1052.93 706.365C1053.24 705.539 1053.77 704.833 1054.45 704.336C1055.14 703.839 1055.93 703.575 1056.76 703.575C1057.85 703.575 1058.91 704.05 1059.68 704.898C1060.46 705.746 1060.9 706.896 1060.9 708.094Z" stroke="#DFEAFC" stroke-miterlimit="10"/>
<path d="M1089.01 708.094C1089.01 708.988 1088.77 709.862 1088.31 710.606C1087.86 711.348 1087.21 711.928 1086.45 712.27C1085.7 712.612 1084.86 712.702 1084.06 712.527C1083.26 712.353 1082.52 711.923 1081.94 711.29C1081.36 710.658 1080.97 709.853 1080.8 708.976C1080.65 708.099 1080.73 707.191 1081.04 706.365C1081.35 705.539 1081.89 704.833 1082.57 704.336C1083.25 703.839 1084.05 703.575 1084.87 703.575C1085.42 703.575 1085.95 703.691 1086.45 703.918C1086.96 704.145 1087.41 704.478 1087.8 704.898C1088.18 705.318 1088.49 705.816 1088.69 706.364C1088.9 706.913 1089.01 707.5 1089.01 708.094Z" stroke="#DFEAFC" stroke-miterlimit="10"/>
<path d="M6.32597 595.192C6.8918 595.192 7.3505 594.69 7.3505 594.073C7.3505 593.456 6.8918 592.955 6.32597 592.955C5.76014 592.955 5.30145 593.456 5.30145 594.073C5.30145 594.69 5.76014 595.192 6.32597 595.192Z" fill="#4181E0"/>
<path d="M19.6894 595.192C20.2552 595.192 20.7139 594.69 20.7139 594.073C20.7139 593.456 20.2552 592.955 19.6894 592.955C19.1236 592.955 18.6648 593.456 18.6648 594.073C18.6648 594.69 19.1236 595.192 19.6894 595.192Z" fill="#4181E0"/>
<path d="M6.32597 609.65C6.8918 609.65 7.3505 609.149 7.3505 608.532C7.3505 607.914 6.8918 607.414 6.32597 607.414C5.76014 607.414 5.30145 607.914 5.30145 608.532C5.30145 609.149 5.76014 609.65 6.32597 609.65Z" fill="#4181E0"/>
<path d="M19.6894 609.65C20.2552 609.65 20.7139 609.149 20.7139 608.532C20.7139 607.914 20.2552 607.414 19.6894 607.414C19.1236 607.414 18.6648 607.914 18.6648 608.532C18.6648 609.149 19.1236 609.65 19.6894 609.65Z" fill="#4181E0"/>
<path d="M7.3505 622.99C7.3505 623.212 7.29038 623.427 7.17783 623.611C7.06525 623.795 6.90525 623.939 6.71804 624.023C6.53083 624.108 6.32483 624.13 6.12609 624.087C5.92736 624.044 5.74482 623.937 5.60153 623.781C5.45825 623.625 5.36067 623.425 5.32114 623.209C5.28161 622.991 5.3019 622.767 5.37944 622.562C5.45698 622.358 5.58829 622.183 5.75677 622.061C5.92526 621.937 6.12334 621.872 6.32597 621.872C6.59769 621.872 6.85828 621.99 7.05041 622.2C7.24257 622.409 7.3505 622.694 7.3505 622.99Z" fill="#4181E0"/>
<path d="M20.7134 622.99C20.7134 623.212 20.6533 623.427 20.5407 623.611C20.4282 623.795 20.2682 623.939 20.0809 624.023C19.8937 624.108 19.6877 624.13 19.489 624.087C19.2903 624.044 19.1077 623.937 18.9644 623.781C18.8211 623.625 18.7236 623.425 18.684 623.209C18.6445 622.991 18.6648 622.767 18.7424 622.562C18.8199 622.358 18.9512 622.183 19.1197 622.061C19.2882 621.937 19.4863 621.872 19.6889 621.872C19.8234 621.872 19.9566 621.901 20.0809 621.957C20.2053 622.013 20.3182 622.096 20.4133 622.2C20.5084 622.304 20.5839 622.427 20.6354 622.562C20.6869 622.698 20.7134 622.844 20.7134 622.99Z" fill="#4181E0"/>
<path d="M7.3505 637.449C7.35035 637.671 7.29024 637.886 7.17761 638.07C7.06495 638.254 6.90491 638.398 6.7177 638.482C6.53048 638.567 6.3245 638.589 6.1258 638.545C5.92709 638.503 5.74459 638.396 5.60135 638.24C5.45812 638.083 5.36059 637.884 5.3211 637.667C5.28161 637.45 5.30193 637.225 5.37949 637.021C5.45704 636.817 5.58836 636.642 5.75683 636.519C5.9253 636.396 6.12336 636.331 6.32597 636.331C6.59773 636.331 6.85832 636.449 7.05044 636.659C7.24257 636.868 7.3505 637.153 7.3505 637.449Z" fill="#4181E0"/>
<path d="M20.7134 637.449C20.7133 637.671 20.6531 637.886 20.5405 638.07C20.4279 638.254 20.2678 638.398 20.0806 638.482C19.8934 638.567 19.6874 638.589 19.4887 638.545C19.29 638.503 19.1075 638.396 18.9643 638.24C18.8211 638.083 18.7235 637.884 18.684 637.667C18.6445 637.45 18.6648 637.225 18.7424 637.021C18.8199 636.817 18.9512 636.642 19.1197 636.519C19.2882 636.396 19.4863 636.331 19.6889 636.331C19.8234 636.331 19.9567 636.36 20.081 636.416C20.2054 636.472 20.3183 636.555 20.4135 636.659C20.5086 636.763 20.5841 636.886 20.6356 637.021C20.687 637.157 20.7135 637.303 20.7134 637.449Z" fill="#4181E0"/>
<path d="M31.4541 595.192C32.0199 595.192 32.4786 594.69 32.4786 594.073C32.4786 593.456 32.0199 592.955 31.4541 592.955C30.8883 592.955 30.4295 593.456 30.4295 594.073C30.4295 594.69 30.8883 595.192 31.4541 595.192Z" fill="#4181E0"/>
<path d="M44.8175 595.192C45.3833 595.192 45.8419 594.69 45.8419 594.073C45.8419 593.456 45.3833 592.955 44.8175 592.955C44.2516 592.955 43.7929 593.456 43.7929 594.073C43.7929 594.69 44.2516 595.192 44.8175 595.192Z" fill="#4181E0"/>
<path d="M58.1809 595.192C58.7467 595.192 59.2053 594.69 59.2053 594.073C59.2053 593.456 58.7467 592.955 58.1809 592.955C57.615 592.955 57.1563 593.456 57.1563 594.073C57.1563 594.69 57.615 595.192 58.1809 595.192Z" fill="#4181E0"/>
<path d="M71.5442 595.192C72.1099 595.192 72.5687 594.69 72.5687 594.073C72.5687 593.456 72.1099 592.955 71.5442 592.955C70.9784 592.955 70.5197 593.456 70.5197 594.073C70.5197 594.69 70.9784 595.192 71.5442 595.192Z" fill="#4181E0"/>
<path d="M31.4541 609.65C32.0199 609.65 32.4786 609.149 32.4786 608.532C32.4786 607.914 32.0199 607.414 31.4541 607.414C30.8883 607.414 30.4295 607.914 30.4295 608.532C30.4295 609.149 30.8883 609.65 31.4541 609.65Z" fill="#4181E0"/>
<path d="M44.8175 609.65C45.3833 609.65 45.8419 609.149 45.8419 608.532C45.8419 607.914 45.3833 607.414 44.8175 607.414C44.2516 607.414 43.7929 607.914 43.7929 608.532C43.7929 609.149 44.2516 609.65 44.8175 609.65Z" fill="#4181E0"/>
<path d="M58.1809 609.65C58.7467 609.65 59.2053 609.149 59.2053 608.532C59.2053 607.914 58.7467 607.414 58.1809 607.414C57.615 607.414 57.1563 607.914 57.1563 608.532C57.1563 609.149 57.615 609.65 58.1809 609.65Z" fill="#4181E0"/>
<path d="M71.5442 609.65C72.1099 609.65 72.5687 609.149 72.5687 608.532C72.5687 607.914 72.1099 607.414 71.5442 607.414C70.9784 607.414 70.5197 607.914 70.5197 608.532C70.5197 609.149 70.9784 609.65 71.5442 609.65Z" fill="#4181E0"/>
<path d="M32.4786 622.99C32.4786 623.212 32.4185 623.427 32.3059 623.611C32.1934 623.795 32.0334 623.939 31.8461 624.023C31.6589 624.108 31.4529 624.13 31.2542 624.087C31.0555 624.044 30.8729 623.937 30.7296 623.781C30.5863 623.625 30.4888 623.425 30.4492 623.209C30.4097 622.991 30.43 622.767 30.5076 622.562C30.5851 622.358 30.7164 622.183 30.8848 622.061C31.0533 621.937 31.2515 621.872 31.4541 621.872C31.7258 621.872 31.9864 621.99 32.1785 622.2C32.3707 622.409 32.4786 622.694 32.4786 622.99Z" fill="#4181E0"/>
<path d="M45.8419 622.99C45.8419 623.212 45.7818 623.427 45.6692 623.611C45.5567 623.795 45.3967 623.939 45.2094 624.023C45.0222 624.108 44.8163 624.13 44.6175 624.087C44.4188 624.044 44.2362 623.937 44.0929 623.781C43.9496 623.625 43.8521 623.425 43.8125 623.209C43.773 622.991 43.7933 622.767 43.8709 622.562C43.9484 622.358 44.0797 622.183 44.2482 622.061C44.4166 621.937 44.6148 621.872 44.8174 621.872C45.0891 621.872 45.3497 621.99 45.5418 622.2C45.734 622.409 45.8419 622.694 45.8419 622.99Z" fill="#4181E0"/>
<path d="M59.2054 622.99C59.2054 623.212 59.1452 623.427 59.0327 623.611C58.9201 623.795 58.7601 623.939 58.5729 624.023C58.3857 624.108 58.1797 624.13 57.9809 624.087C57.7822 624.044 57.5997 623.937 57.4564 623.781C57.3131 623.625 57.2156 623.425 57.176 623.209C57.1365 622.991 57.1568 622.767 57.2343 622.562C57.3119 622.358 57.4431 622.183 57.6116 622.061C57.7802 621.937 57.9782 621.872 58.1809 621.872C58.4526 621.872 58.7132 621.99 58.9053 622.2C59.0974 622.409 59.2054 622.694 59.2054 622.99Z" fill="#4181E0"/>
<path d="M72.568 622.99C72.568 623.212 72.5083 623.427 72.3959 623.611C72.2827 623.795 72.1234 623.939 71.9356 624.023C71.7484 624.108 71.5428 624.13 71.3436 624.087C71.1451 624.044 70.9626 623.937 70.8193 623.781C70.6761 623.625 70.5785 623.425 70.539 623.209C70.4994 622.991 70.5197 622.767 70.5972 622.562C70.6748 622.358 70.806 622.183 70.9746 622.061C71.1431 621.937 71.3408 621.872 71.5435 621.872C71.678 621.872 71.8118 621.901 71.9356 621.957C72.0601 622.013 72.1732 622.096 72.2685 622.2C72.3631 622.304 72.4386 622.427 72.4905 622.562C72.5417 622.698 72.568 622.844 72.568 622.99Z" fill="#4181E0"/>
<path d="M32.4786 637.449C32.4785 637.671 32.4183 637.886 32.3057 638.07C32.1931 638.254 32.033 638.398 31.8458 638.482C31.6586 638.567 31.4526 638.589 31.2539 638.545C31.0552 638.503 30.8727 638.396 30.7295 638.24C30.5862 638.083 30.4887 637.884 30.4492 637.667C30.4097 637.45 30.43 637.225 30.5076 637.021C30.5851 636.817 30.7164 636.642 30.8849 636.519C31.0534 636.396 31.2515 636.331 31.4541 636.331C31.5886 636.331 31.7219 636.36 31.8462 636.416C31.9706 636.472 32.0835 636.555 32.1787 636.659C32.2738 636.763 32.3492 636.886 32.4008 637.021C32.4522 637.157 32.4787 637.303 32.4786 637.449Z" fill="#4181E0"/>
<path d="M45.8419 637.449C45.8418 637.671 45.7816 637.886 45.669 638.07C45.5564 638.254 45.3963 638.398 45.2091 638.482C45.0219 638.567 44.8159 638.589 44.6172 638.545C44.4185 638.503 44.236 638.396 44.0928 638.24C43.9496 638.083 43.852 637.884 43.8125 637.667C43.773 637.45 43.7933 637.225 43.8709 637.021C43.9484 636.817 44.0798 636.642 44.2482 636.519C44.4167 636.396 44.6148 636.331 44.8174 636.331C44.9519 636.331 45.0852 636.36 45.2096 636.416C45.3339 636.472 45.4468 636.555 45.542 636.659C45.6371 636.763 45.7126 636.886 45.7641 637.021C45.8155 637.157 45.842 637.303 45.8419 637.449Z" fill="#4181E0"/>
<path d="M59.2054 637.449C59.2053 637.671 59.1451 637.886 59.0325 638.07C58.9199 638.254 58.7598 638.398 58.5726 638.482C58.3853 638.567 58.1794 638.589 57.9807 638.545C57.7819 638.503 57.5995 638.396 57.4562 638.24C57.313 638.083 57.2155 637.884 57.176 637.667C57.1365 637.45 57.1568 637.225 57.2343 637.021C57.3119 636.817 57.4432 636.642 57.6117 636.519C57.7802 636.396 57.9782 636.331 58.1809 636.331C58.4526 636.331 58.7132 636.449 58.9053 636.659C59.0974 636.868 59.2054 637.153 59.2054 637.449Z" fill="#4181E0"/>
<path d="M72.568 637.449C72.568 637.671 72.5083 637.886 72.3952 638.07C72.2827 638.254 72.1227 638.398 71.9356 638.482C71.7484 638.567 71.5421 638.589 71.3436 638.545C71.1448 638.503 70.9623 638.396 70.8191 638.24C70.6759 638.083 70.5784 637.884 70.5389 637.667C70.4994 637.45 70.5197 637.225 70.5972 637.021C70.6748 636.817 70.8061 636.642 70.9746 636.519C71.1431 636.396 71.3415 636.331 71.5435 636.331C71.678 636.331 71.8118 636.36 71.9363 636.416C72.0601 636.472 72.1732 636.555 72.2685 636.659C72.3639 636.763 72.4393 636.886 72.4905 637.021C72.5417 637.157 72.568 637.303 72.568 637.449Z" fill="#4181E0"/>
<path d="M31.4541 651.938C32.0199 651.938 32.4786 651.437 32.4786 650.82C32.4786 650.202 32.0199 649.701 31.4541 649.701C30.8883 649.701 30.4295 650.202 30.4295 650.82C30.4295 651.437 30.8883 651.938 31.4541 651.938Z" fill="#4181E0"/>
<path d="M44.8175 651.938C45.3833 651.938 45.8419 651.437 45.8419 650.82C45.8419 650.202 45.3833 649.701 44.8175 649.701C44.2516 649.701 43.7929 650.202 43.7929 650.82C43.7929 651.437 44.2516 651.938 44.8175 651.938Z" fill="#4181E0"/>
<path d="M58.1809 651.938C58.7467 651.938 59.2053 651.437 59.2053 650.82C59.2053 650.202 58.7467 649.701 58.1809 649.701C57.615 649.701 57.1563 650.202 57.1563 650.82C57.1563 651.437 57.615 651.938 58.1809 651.938Z" fill="#4181E0"/>
<path d="M71.5442 651.938C72.1099 651.938 72.5687 651.437 72.5687 650.82C72.5687 650.202 72.1099 649.701 71.5442 649.701C70.9784 649.701 70.5197 650.202 70.5197 650.82C70.5197 651.437 70.9784 651.938 71.5442 651.938Z" fill="#4181E0"/>
<path d="M31.4541 666.396C32.0199 666.396 32.4786 665.896 32.4786 665.278C32.4786 664.66 32.0199 664.16 31.4541 664.16C30.8883 664.16 30.4295 664.66 30.4295 665.278C30.4295 665.896 30.8883 666.396 31.4541 666.396Z" fill="#4181E0"/>
<path d="M44.8175 666.396C45.3833 666.396 45.8419 665.896 45.8419 665.278C45.8419 664.66 45.3833 664.16 44.8175 664.16C44.2516 664.16 43.7929 664.66 43.7929 665.278C43.7929 665.896 44.2516 666.396 44.8175 666.396Z" fill="#4181E0"/>
<path d="M58.1809 666.396C58.7467 666.396 59.2053 665.896 59.2053 665.278C59.2053 664.66 58.7467 664.16 58.1809 664.16C57.615 664.16 57.1563 664.66 57.1563 665.278C57.1563 665.896 57.615 666.396 58.1809 666.396Z" fill="#4181E0"/>
<path d="M71.5442 666.396C72.1099 666.396 72.5687 665.896 72.5687 665.278C72.5687 664.66 72.1099 664.16 71.5442 664.16C70.9784 664.16 70.5197 664.66 70.5197 665.278C70.5197 665.896 70.9784 666.396 71.5442 666.396Z" fill="#4181E0"/>
<path d="M32.4786 679.736C32.4786 679.957 32.4184 680.174 32.3059 680.358C32.1933 680.542 32.0333 680.684 31.8461 680.769C31.6589 680.854 31.4529 680.876 31.2541 680.833C31.0554 680.79 30.8729 680.683 30.7296 680.527C30.5863 680.37 30.4888 680.171 30.4492 679.954C30.4096 679.738 30.43 679.513 30.5075 679.308C30.585 679.104 30.7163 678.93 30.8848 678.806C31.0533 678.684 31.2514 678.618 31.4541 678.618C31.7258 678.618 31.9864 678.736 32.1785 678.945C32.3706 679.156 32.4786 679.44 32.4786 679.736Z" fill="#4181E0"/>
<path d="M45.842 679.736C45.842 679.957 45.7818 680.174 45.6693 680.358C45.5567 680.542 45.3967 680.684 45.2095 680.769C45.0223 680.854 44.8163 680.876 44.6175 680.833C44.4188 680.79 44.2363 680.683 44.093 680.527C43.9497 680.37 43.8522 680.171 43.8126 679.954C43.773 679.738 43.7934 679.513 43.8709 679.308C43.9484 679.104 44.0797 678.93 44.2482 678.806C44.4167 678.684 44.6148 678.618 44.8175 678.618C45.0892 678.618 45.3497 678.736 45.5419 678.945C45.734 679.156 45.842 679.44 45.842 679.736Z" fill="#4181E0"/>
<path d="M59.2053 679.736C59.2053 679.957 59.1452 680.174 59.0327 680.358C58.9201 680.542 58.7601 680.684 58.5728 680.769C58.3857 680.854 58.1797 680.876 57.9809 680.833C57.7822 680.79 57.5996 680.683 57.4564 680.527C57.3131 680.37 57.2155 680.171 57.176 679.954C57.1365 679.738 57.1568 679.513 57.2342 679.308C57.3118 679.104 57.4431 678.93 57.6116 678.806C57.7801 678.684 57.9782 678.618 58.1808 678.618C58.4525 678.618 58.7131 678.736 58.9052 678.945C59.0974 679.156 59.2053 679.44 59.2053 679.736Z" fill="#4181E0"/>
<path d="M72.568 679.736C72.568 679.957 72.5083 680.174 72.3959 680.358C72.2827 680.542 72.1227 680.684 71.9356 680.769C71.7484 680.854 71.5428 680.876 71.3436 680.833C71.1451 680.79 70.9626 680.683 70.8193 680.527C70.676 680.37 70.5784 680.171 70.5389 679.954C70.4994 679.738 70.5197 679.513 70.5972 679.308C70.6748 679.104 70.806 678.93 70.9746 678.806C71.1431 678.684 71.3408 678.618 71.5435 678.618C71.678 678.618 71.8118 678.647 71.9356 678.703C72.0601 678.759 72.1732 678.842 72.2685 678.945C72.3631 679.049 72.4386 679.173 72.4905 679.308C72.5417 679.444 72.568 679.589 72.568 679.736Z" fill="#4181E0"/>
<path d="M32.4786 694.196C32.4784 694.417 32.4183 694.633 32.3057 694.817C32.193 695.001 32.033 695.144 31.8458 695.229C31.6585 695.313 31.4526 695.335 31.2539 695.292C31.0551 695.249 30.8727 695.142 30.7294 694.986C30.5861 694.83 30.4887 694.63 30.4492 694.414C30.4096 694.196 30.43 693.972 30.5075 693.767C30.5851 693.563 30.7164 693.388 30.8849 693.266C31.0534 693.143 31.2514 693.077 31.4541 693.077C31.5886 693.077 31.7219 693.106 31.8462 693.163C31.9705 693.218 32.0835 693.301 32.1786 693.405C32.2738 693.509 32.3492 693.632 32.4007 693.768C32.4522 693.904 32.4786 694.049 32.4786 694.196Z" fill="#4181E0"/>
<path d="M45.842 694.196C45.8418 694.417 45.7817 694.633 45.6691 694.817C45.5564 695.001 45.3964 695.144 45.2092 695.229C45.0219 695.313 44.816 695.335 44.6173 695.292C44.4185 695.249 44.2361 695.142 44.0928 694.986C43.9496 694.83 43.8521 694.63 43.8126 694.414C43.773 694.196 43.7934 693.972 43.8709 693.767C43.9485 693.563 44.0798 693.388 44.2483 693.266C44.4168 693.143 44.6148 693.077 44.8175 693.077C44.952 693.077 45.0853 693.106 45.2096 693.163C45.3339 693.218 45.4469 693.301 45.5421 693.405C45.6372 693.509 45.7126 693.632 45.7641 693.768C45.8156 693.904 45.842 694.049 45.842 694.196Z" fill="#4181E0"/>
<path d="M59.2054 694.196C59.2052 694.417 59.1451 694.633 59.0325 694.817C58.9199 695.001 58.7598 695.144 58.5726 695.229C58.3853 695.313 58.1794 695.335 57.9807 695.292C57.7819 695.249 57.5995 695.142 57.4562 694.986C57.313 694.83 57.2155 694.63 57.176 694.414C57.1364 694.196 57.1568 693.972 57.2343 693.767C57.3119 693.563 57.4432 693.388 57.6117 693.266C57.7802 693.143 57.9782 693.077 58.1809 693.077C58.4526 693.077 58.7132 693.195 58.9053 693.405C59.0974 693.615 59.2054 693.899 59.2054 694.196Z" fill="#4181E0"/>
<path d="M72.568 694.196C72.568 694.417 72.5083 694.633 72.3952 694.817C72.2827 695.001 72.1227 695.144 71.9356 695.229C71.7484 695.313 71.5421 695.335 71.3436 695.292C71.1448 695.249 70.9623 695.142 70.8191 694.986C70.6759 694.83 70.5784 694.63 70.5389 694.414C70.4994 694.196 70.5197 693.972 70.5972 693.767C70.6748 693.563 70.8061 693.388 70.9746 693.266C71.1431 693.143 71.3415 693.077 71.5435 693.077C71.678 693.077 71.8118 693.106 71.9363 693.163C72.0601 693.218 72.1732 693.301 72.2685 693.405C72.3639 693.509 72.4393 693.632 72.4905 693.768C72.5417 693.904 72.568 694.049 72.568 694.196Z" fill="#4181E0"/>
<path d="M6.32597 651.938C6.8918 651.938 7.3505 651.437 7.3505 650.82C7.3505 650.202 6.8918 649.701 6.32597 649.701C5.76014 649.701 5.30145 650.202 5.30145 650.82C5.30145 651.437 5.76014 651.938 6.32597 651.938Z" fill="#4181E0"/>
<path d="M19.6894 651.938C20.2552 651.938 20.7139 651.437 20.7139 650.82C20.7139 650.202 20.2552 649.701 19.6894 649.701C19.1236 649.701 18.6648 650.202 18.6648 650.82C18.6648 651.437 19.1236 651.938 19.6894 651.938Z" fill="#4181E0"/>
<path d="M6.32597 666.396C6.8918 666.396 7.3505 665.896 7.3505 665.278C7.3505 664.66 6.8918 664.16 6.32597 664.16C5.76014 664.16 5.30145 664.66 5.30145 665.278C5.30145 665.896 5.76014 666.396 6.32597 666.396Z" fill="#4181E0"/>
<path d="M19.6894 666.396C20.2552 666.396 20.7139 665.896 20.7139 665.278C20.7139 664.66 20.2552 664.16 19.6894 664.16C19.1236 664.16 18.6648 664.66 18.6648 665.278C18.6648 665.896 19.1236 666.396 19.6894 666.396Z" fill="#4181E0"/>
<path d="M7.3505 679.736C7.3505 679.957 7.29038 680.174 7.17783 680.358C7.06525 680.542 6.90525 680.684 6.71804 680.769C6.53083 680.854 6.32483 680.876 6.12609 680.833C5.92736 680.79 5.74482 680.683 5.60153 680.527C5.45825 680.37 5.36067 680.171 5.32114 679.954C5.28161 679.738 5.3019 679.513 5.37944 679.308C5.45698 679.104 5.58829 678.93 5.75677 678.806C5.92526 678.684 6.12334 678.618 6.32597 678.618C6.59769 678.618 6.85828 678.736 7.05041 678.945C7.24257 679.156 7.3505 679.44 7.3505 679.736Z" fill="#4181E0"/>
<path d="M20.7134 679.736C20.7134 679.957 20.6533 680.174 20.5407 680.358C20.4282 680.542 20.2682 680.684 20.0809 680.769C19.8937 680.854 19.6877 680.876 19.489 680.833C19.2903 680.79 19.1077 680.683 18.9644 680.527C18.8211 680.37 18.7236 680.171 18.684 679.954C18.6445 679.738 18.6648 679.513 18.7424 679.308C18.8199 679.104 18.9512 678.93 19.1197 678.806C19.2882 678.684 19.4863 678.618 19.6889 678.618C19.8234 678.618 19.9566 678.647 20.0809 678.703C20.2053 678.759 20.3182 678.842 20.4133 678.945C20.5084 679.049 20.5839 679.173 20.6354 679.308C20.6869 679.444 20.7134 679.589 20.7134 679.736Z" fill="#4181E0"/>
<path d="M7.3505 694.196C7.35035 694.417 7.29024 694.633 7.17761 694.817C7.06495 695.001 6.90491 695.144 6.7177 695.229C6.53048 695.313 6.3245 695.335 6.1258 695.292C5.92709 695.249 5.74459 695.142 5.60135 694.986C5.45812 694.83 5.36059 694.63 5.3211 694.414C5.28161 694.196 5.30193 693.972 5.37949 693.767C5.45704 693.563 5.58836 693.388 5.75683 693.266C5.9253 693.143 6.12336 693.077 6.32597 693.077C6.59773 693.077 6.85832 693.195 7.05044 693.405C7.24257 693.615 7.3505 693.899 7.3505 694.196Z" fill="#4181E0"/>
<path d="M20.7134 694.196C20.7133 694.417 20.6531 694.633 20.5405 694.817C20.4279 695.001 20.2678 695.144 20.0806 695.229C19.8934 695.313 19.6874 695.335 19.4887 695.292C19.29 695.249 19.1075 695.142 18.9643 694.986C18.8211 694.83 18.7235 694.63 18.684 694.414C18.6445 694.196 18.6648 693.972 18.7424 693.767C18.8199 693.563 18.9512 693.388 19.1197 693.266C19.2882 693.143 19.4863 693.077 19.6889 693.077C19.8234 693.077 19.9567 693.106 20.081 693.163C20.2054 693.218 20.3183 693.301 20.4135 693.405C20.5086 693.509 20.5841 693.632 20.6356 693.768C20.687 693.904 20.7135 694.049 20.7134 694.196Z" fill="#4181E0"/>
<path d="M6.32597 708.684C6.8918 708.684 7.3505 708.183 7.3505 707.566C7.3505 706.948 6.8918 706.448 6.32597 706.448C5.76014 706.448 5.30145 706.948 5.30145 707.566C5.30145 708.183 5.76014 708.684 6.32597 708.684Z" fill="#4181E0"/>
<path d="M19.6894 708.684C20.2552 708.684 20.7139 708.183 20.7139 707.566C20.7139 706.948 20.2552 706.448 19.6894 706.448C19.1236 706.448 18.6648 706.948 18.6648 707.566C18.6648 708.183 19.1236 708.684 19.6894 708.684Z" fill="#4181E0"/>
<path d="M6.32597 723.142C6.8918 723.142 7.3505 722.642 7.3505 722.025C7.3505 721.407 6.8918 720.906 6.32597 720.906C5.76014 720.906 5.30145 721.407 5.30145 722.025C5.30145 722.642 5.76014 723.142 6.32597 723.142Z" fill="#4181E0"/>
<path d="M19.6894 723.142C20.2552 723.142 20.7139 722.642 20.7139 722.025C20.7139 721.407 20.2552 720.906 19.6894 720.906C19.1236 720.906 18.6648 721.407 18.6648 722.025C18.6648 722.642 19.1236 723.142 19.6894 723.142Z" fill="#4181E0"/>
<path d="M31.4541 708.684C32.0199 708.684 32.4786 708.183 32.4786 707.566C32.4786 706.948 32.0199 706.448 31.4541 706.448C30.8883 706.448 30.4295 706.948 30.4295 707.566C30.4295 708.183 30.8883 708.684 31.4541 708.684Z" fill="#4181E0"/>
<path d="M44.8175 708.684C45.3833 708.684 45.8419 708.183 45.8419 707.566C45.8419 706.948 45.3833 706.448 44.8175 706.448C44.2516 706.448 43.7929 706.948 43.7929 707.566C43.7929 708.183 44.2516 708.684 44.8175 708.684Z" fill="#4181E0"/>
<path d="M58.1809 708.684C58.7467 708.684 59.2053 708.183 59.2053 707.566C59.2053 706.948 58.7467 706.448 58.1809 706.448C57.615 706.448 57.1563 706.948 57.1563 707.566C57.1563 708.183 57.615 708.684 58.1809 708.684Z" fill="#4181E0"/>
<path d="M71.5442 708.684C72.1099 708.684 72.5687 708.183 72.5687 707.566C72.5687 706.948 72.1099 706.448 71.5442 706.448C70.9784 706.448 70.5197 706.948 70.5197 707.566C70.5197 708.183 70.9784 708.684 71.5442 708.684Z" fill="#4181E0"/>
<path d="M31.4541 723.142C32.0199 723.142 32.4786 722.642 32.4786 722.025C32.4786 721.407 32.0199 720.906 31.4541 720.906C30.8883 720.906 30.4295 721.407 30.4295 722.025C30.4295 722.642 30.8883 723.142 31.4541 723.142Z" fill="#4181E0"/>
<path d="M44.8175 723.142C45.3833 723.142 45.8419 722.642 45.8419 722.025C45.8419 721.407 45.3833 720.906 44.8175 720.906C44.2516 720.906 43.7929 721.407 43.7929 722.025C43.7929 722.642 44.2516 723.142 44.8175 723.142Z" fill="#4181E0"/>
<path d="M58.1809 723.142C58.7467 723.142 59.2053 722.642 59.2053 722.025C59.2053 721.407 58.7467 720.906 58.1809 720.906C57.615 720.906 57.1563 721.407 57.1563 722.025C57.1563 722.642 57.615 723.142 58.1809 723.142Z" fill="#4181E0"/>
<path d="M71.5442 723.142C72.1099 723.142 72.5687 722.642 72.5687 722.025C72.5687 721.407 72.1099 720.906 71.5442 720.906C70.9784 720.906 70.5197 721.407 70.5197 722.025C70.5197 722.642 70.9784 723.142 71.5442 723.142Z" fill="#4181E0"/>
<path d="M1313.96 242.319C1314.79 242.319 1315.46 241.586 1315.46 240.682C1315.46 239.778 1314.79 239.045 1313.96 239.045C1313.13 239.045 1312.46 239.778 1312.46 240.682C1312.46 241.586 1313.13 242.319 1313.96 242.319Z" fill="#4181E0" fill-opacity="0.34"/>
<path d="M1333.53 242.319C1334.36 242.319 1335.03 241.586 1335.03 240.682C1335.03 239.778 1334.36 239.045 1333.53 239.045C1332.7 239.045 1332.03 239.778 1332.03 240.682C1332.03 241.586 1332.7 242.319 1333.53 242.319Z" fill="#4181E0" fill-opacity="0.34"/>
<path d="M1353.1 242.319C1353.93 242.319 1354.6 241.586 1354.6 240.682C1354.6 239.778 1353.93 239.045 1353.1 239.045C1352.28 239.045 1351.6 239.778 1351.6 240.682C1351.6 241.586 1352.28 242.319 1353.1 242.319Z" fill="#4181E0" fill-opacity="0.34"/>
<path d="M1313.96 263.482C1314.79 263.482 1315.46 262.749 1315.46 261.845C1315.46 260.941 1314.79 260.208 1313.96 260.208C1313.13 260.208 1312.46 260.941 1312.46 261.845C1312.46 262.749 1313.13 263.482 1313.96 263.482Z" fill="#4181E0" fill-opacity="0.34"/>
<path d="M1333.53 263.482C1334.36 263.482 1335.03 262.749 1335.03 261.845C1335.03 260.941 1334.36 260.208 1333.53 260.208C1332.7 260.208 1332.03 260.941 1332.03 261.845C1332.03 262.749 1332.7 263.482 1333.53 263.482Z" fill="#4181E0" fill-opacity="0.34"/>
<path d="M1353.1 263.482C1353.93 263.482 1354.6 262.749 1354.6 261.845C1354.6 260.941 1353.93 260.208 1353.1 260.208C1352.28 260.208 1351.6 260.941 1351.6 261.845C1351.6 262.749 1352.28 263.482 1353.1 263.482Z" fill="#4181E0" fill-opacity="0.34"/>
<path d="M1315.46 283.009C1315.46 283.333 1315.37 283.65 1315.21 283.919C1315.05 284.188 1314.81 284.398 1314.53 284.521C1314.26 284.645 1313.96 284.678 1313.66 284.614C1313.37 284.552 1313.11 284.396 1312.9 284.167C1312.69 283.938 1312.55 283.647 1312.49 283.328C1312.43 283.011 1312.46 282.682 1312.58 282.383C1312.69 282.084 1312.88 281.828 1313.12 281.648C1313.37 281.469 1313.66 281.373 1313.96 281.373C1314.36 281.373 1314.74 281.545 1315.02 281.852C1315.3 282.159 1315.46 282.576 1315.46 283.009Z" fill="#4181E0" fill-opacity="0.34"/>
<path d="M1335.03 283.009C1335.03 283.333 1334.94 283.65 1334.78 283.919C1334.61 284.188 1334.38 284.398 1334.11 284.521C1333.83 284.645 1333.53 284.678 1333.24 284.614C1332.95 284.552 1332.68 284.396 1332.47 284.167C1332.26 283.938 1332.12 283.647 1332.06 283.328C1332 283.011 1332.03 282.682 1332.14 282.383C1332.26 282.084 1332.45 281.828 1332.7 281.648C1332.95 281.469 1333.24 281.373 1333.53 281.373C1333.93 281.373 1334.31 281.545 1334.59 281.852C1334.87 282.159 1335.03 282.576 1335.03 283.009Z" fill="#4181E0" fill-opacity="0.34"/>
<path d="M1354.6 283.009C1354.6 283.333 1354.52 283.65 1354.35 283.919C1354.18 284.188 1353.95 284.398 1353.68 284.521C1353.4 284.645 1353.1 284.678 1352.81 284.614C1352.52 284.552 1352.25 284.396 1352.04 284.167C1351.83 283.938 1351.69 283.647 1351.63 283.328C1351.57 283.011 1351.6 282.682 1351.71 282.383C1351.83 282.084 1352.02 281.828 1352.27 281.648C1352.52 281.469 1352.8 281.373 1353.1 281.373C1353.5 281.373 1353.88 281.545 1354.16 281.852C1354.45 282.159 1354.6 282.576 1354.6 283.009Z" fill="#4181E0" fill-opacity="0.34"/>
<path d="M1315.46 304.175C1315.46 304.499 1315.37 304.815 1315.21 305.084C1315.05 305.353 1314.81 305.563 1314.53 305.687C1314.26 305.81 1313.96 305.843 1313.66 305.779C1313.37 305.717 1313.11 305.561 1312.9 305.332C1312.69 305.103 1312.55 304.811 1312.49 304.493C1312.43 304.176 1312.46 303.847 1312.58 303.548C1312.69 303.248 1312.88 302.993 1313.12 302.813C1313.37 302.634 1313.66 302.538 1313.96 302.538C1314.16 302.538 1314.36 302.58 1314.53 302.663C1314.72 302.745 1314.88 302.865 1315.02 303.017C1315.16 303.169 1315.27 303.35 1315.34 303.549C1315.42 303.748 1315.46 303.96 1315.46 304.175Z" fill="#4181E0" fill-opacity="0.34"/>
<path d="M1335.03 304.175C1335.03 304.499 1334.94 304.815 1334.78 305.084C1334.61 305.353 1334.38 305.563 1334.11 305.687C1333.83 305.81 1333.53 305.843 1333.24 305.779C1332.95 305.717 1332.68 305.561 1332.47 305.332C1332.26 305.103 1332.12 304.811 1332.06 304.493C1332 304.176 1332.03 303.847 1332.14 303.548C1332.26 303.248 1332.45 302.993 1332.7 302.813C1332.95 302.634 1333.24 302.538 1333.53 302.538C1333.73 302.538 1333.92 302.58 1334.11 302.663C1334.29 302.745 1334.45 302.865 1334.59 303.017C1334.73 303.169 1334.85 303.35 1334.92 303.549C1334.99 303.748 1335.03 303.96 1335.03 304.175Z" fill="#4181E0" fill-opacity="0.34"/>
<path d="M1354.6 304.175C1354.6 304.499 1354.52 304.815 1354.35 305.084C1354.18 305.353 1353.95 305.563 1353.68 305.687C1353.4 305.81 1353.1 305.843 1352.81 305.779C1352.52 305.717 1352.25 305.561 1352.04 305.332C1351.83 305.103 1351.69 304.811 1351.63 304.493C1351.57 304.176 1351.6 303.847 1351.71 303.548C1351.83 303.248 1352.02 302.993 1352.27 302.813C1352.52 302.634 1352.8 302.538 1353.1 302.538C1353.5 302.538 1353.88 302.711 1354.16 303.017C1354.45 303.325 1354.6 303.741 1354.6 304.175Z" fill="#4181E0" fill-opacity="0.34"/>
<path d="M1238.02 242.319C1238.84 242.319 1239.52 241.586 1239.52 240.682C1239.52 239.778 1238.84 239.045 1238.02 239.045C1237.18 239.045 1236.51 239.778 1236.51 240.682C1236.51 241.586 1237.18 242.319 1238.02 242.319Z" fill="#4181E0" fill-opacity="0.34"/>
<path d="M1257.59 242.319C1258.41 242.319 1259.09 241.586 1259.09 240.682C1259.09 239.778 1258.41 239.045 1257.59 239.045C1256.76 239.045 1256.09 239.778 1256.09 240.682C1256.09 241.586 1256.76 242.319 1257.59 242.319Z" fill="#4181E0" fill-opacity="0.34"/>
<path d="M1277.16 242.319C1277.99 242.319 1278.66 241.586 1278.66 240.682C1278.66 239.778 1277.99 239.045 1277.16 239.045C1276.33 239.045 1275.66 239.778 1275.66 240.682C1275.66 241.586 1276.33 242.319 1277.16 242.319Z" fill="#4181E0" fill-opacity="0.34"/>
<path d="M1296.73 242.319C1297.56 242.319 1298.23 241.586 1298.23 240.682C1298.23 239.778 1297.56 239.045 1296.73 239.045C1295.9 239.045 1295.23 239.778 1295.23 240.682C1295.23 241.586 1295.9 242.319 1296.73 242.319Z" fill="#4181E0" fill-opacity="0.34"/>
<path d="M1238.02 263.482C1238.84 263.482 1239.52 262.749 1239.52 261.845C1239.52 260.941 1238.84 260.208 1238.02 260.208C1237.18 260.208 1236.51 260.941 1236.51 261.845C1236.51 262.749 1237.18 263.482 1238.02 263.482Z" fill="#4181E0" fill-opacity="0.34"/>
<path d="M1257.59 263.482C1258.41 263.482 1259.09 262.749 1259.09 261.845C1259.09 260.941 1258.41 260.208 1257.59 260.208C1256.76 260.208 1256.09 260.941 1256.09 261.845C1256.09 262.749 1256.76 263.482 1257.59 263.482Z" fill="#4181E0" fill-opacity="0.34"/>
<path d="M1277.16 263.482C1277.99 263.482 1278.66 262.749 1278.66 261.845C1278.66 260.941 1277.99 260.208 1277.16 260.208C1276.33 260.208 1275.66 260.941 1275.66 261.845C1275.66 262.749 1276.33 263.482 1277.16 263.482Z" fill="#4181E0" fill-opacity="0.34"/>
<path d="M1296.73 263.482C1297.56 263.482 1298.23 262.749 1298.23 261.845C1298.23 260.941 1297.56 260.208 1296.73 260.208C1295.9 260.208 1295.23 260.941 1295.23 261.845C1295.23 262.749 1295.9 263.482 1296.73 263.482Z" fill="#4181E0" fill-opacity="0.34"/>
<path d="M1239.52 283.009C1239.52 283.333 1239.42 283.65 1239.26 283.919C1239.1 284.188 1238.86 284.398 1238.59 284.521C1238.31 284.645 1238.02 284.678 1237.72 284.614C1237.43 284.552 1237.16 284.396 1236.96 284.167C1236.74 283.938 1236.6 283.647 1236.54 283.328C1236.49 283.011 1236.51 282.682 1236.63 282.383C1236.74 282.084 1236.93 281.828 1237.18 281.648C1237.43 281.469 1237.72 281.373 1238.02 281.373C1238.41 281.373 1238.79 281.545 1239.08 281.852C1239.36 282.159 1239.52 282.576 1239.52 283.009Z" fill="#4181E0" fill-opacity="0.34"/>
<path d="M1259.09 283.009C1259.09 283.333 1259 283.65 1258.83 283.919C1258.67 284.188 1258.43 284.398 1258.16 284.521C1257.89 284.645 1257.59 284.678 1257.3 284.614C1257 284.552 1256.73 284.396 1256.53 284.167C1256.31 283.938 1256.17 283.647 1256.12 283.328C1256.06 283.011 1256.09 282.682 1256.2 282.383C1256.31 282.084 1256.51 281.828 1256.76 281.648C1257 281.469 1257.29 281.373 1257.59 281.373C1257.99 281.373 1258.36 281.545 1258.65 281.852C1258.93 282.159 1259.09 282.576 1259.09 283.009Z" fill="#4181E0" fill-opacity="0.34"/>
<path d="M1278.66 283.009C1278.66 283.333 1278.57 283.65 1278.41 283.919C1278.24 284.188 1278.01 284.398 1277.73 284.521C1277.46 284.645 1277.15 284.678 1276.87 284.614C1276.58 284.552 1276.31 284.396 1276.1 284.167C1275.89 283.938 1275.74 283.647 1275.69 283.328C1275.63 283.011 1275.66 282.682 1275.77 282.383C1275.89 282.084 1276.08 281.828 1276.33 281.648C1276.57 281.469 1276.86 281.373 1277.16 281.373C1277.56 281.373 1277.94 281.545 1278.22 281.852C1278.5 282.159 1278.66 282.576 1278.66 283.009Z" fill="#4181E0" fill-opacity="0.34"/>
<path d="M1298.23 283.009C1298.23 283.333 1298.14 283.65 1297.98 283.919C1297.81 284.188 1297.58 284.398 1297.3 284.521C1297.03 284.645 1296.73 284.678 1296.43 284.614C1296.14 284.552 1295.88 284.396 1295.67 284.167C1295.46 283.938 1295.32 283.647 1295.26 283.328C1295.2 283.011 1295.23 282.682 1295.35 282.383C1295.46 282.084 1295.65 281.828 1295.89 281.648C1296.14 281.469 1296.43 281.373 1296.73 281.373C1296.92 281.373 1297.12 281.415 1297.3 281.498C1297.49 281.58 1297.65 281.7 1297.79 281.852C1297.93 282.004 1298.04 282.184 1298.11 282.383C1298.19 282.582 1298.23 282.794 1298.23 283.009Z" fill="#4181E0" fill-opacity="0.34"/>
<path d="M1239.52 304.175C1239.52 304.499 1239.42 304.815 1239.26 305.084C1239.1 305.353 1238.86 305.563 1238.59 305.687C1238.31 305.81 1238.02 305.843 1237.72 305.779C1237.43 305.717 1237.16 305.561 1236.96 305.332C1236.74 305.103 1236.6 304.811 1236.54 304.493C1236.49 304.176 1236.51 303.847 1236.63 303.548C1236.74 303.248 1236.93 302.993 1237.18 302.813C1237.43 302.634 1237.72 302.538 1238.02 302.538C1238.21 302.538 1238.41 302.58 1238.59 302.663C1238.77 302.745 1238.93 302.865 1239.08 303.017C1239.22 303.169 1239.32 303.35 1239.4 303.549C1239.47 303.748 1239.52 303.96 1239.52 304.175Z" fill="#4181E0" fill-opacity="0.34"/>
<path d="M1259.09 304.175C1259.09 304.499 1259 304.815 1258.83 305.084C1258.67 305.353 1258.43 305.563 1258.16 305.687C1257.89 305.81 1257.58 305.843 1257.3 305.779C1257 305.717 1256.73 305.561 1256.53 305.332C1256.31 305.103 1256.17 304.811 1256.12 304.493C1256.06 304.176 1256.09 303.847 1256.2 303.548C1256.31 303.248 1256.51 302.993 1256.76 302.813C1257 302.634 1257.29 302.538 1257.59 302.538C1257.79 302.538 1257.98 302.58 1258.16 302.663C1258.34 302.745 1258.51 302.865 1258.65 303.017C1258.79 303.169 1258.9 303.35 1258.98 303.549C1259.05 303.748 1259.09 303.96 1259.09 304.175Z" fill="#4181E0" fill-opacity="0.34"/>
<path d="M1278.66 304.175C1278.66 304.499 1278.57 304.815 1278.41 305.084C1278.24 305.353 1278.01 305.563 1277.73 305.687C1277.46 305.81 1277.15 305.843 1276.86 305.779C1276.58 305.717 1276.31 305.561 1276.1 305.332C1275.89 305.103 1275.74 304.811 1275.69 304.493C1275.63 304.176 1275.66 303.847 1275.77 303.548C1275.89 303.248 1276.08 302.993 1276.33 302.813C1276.57 302.634 1276.86 302.538 1277.16 302.538C1277.56 302.538 1277.94 302.711 1278.22 303.017C1278.5 303.325 1278.66 303.741 1278.66 304.175Z" fill="#4181E0" fill-opacity="0.34"/>
<path d="M1298.23 304.175C1298.23 304.499 1298.14 304.815 1297.98 305.084C1297.81 305.353 1297.58 305.563 1297.3 305.687C1297.03 305.81 1296.73 305.843 1296.43 305.779C1296.14 305.717 1295.88 305.561 1295.67 305.332C1295.46 305.103 1295.32 304.811 1295.26 304.493C1295.2 304.176 1295.23 303.847 1295.35 303.548C1295.46 303.248 1295.65 302.993 1295.89 302.813C1296.14 302.634 1296.43 302.538 1296.73 302.538C1296.92 302.538 1297.12 302.58 1297.3 302.663C1297.49 302.745 1297.65 302.865 1297.79 303.017C1297.93 303.169 1298.04 303.35 1298.11 303.549C1298.19 303.748 1298.23 303.96 1298.23 304.175Z" fill="#4181E0" fill-opacity="0.34"/>
<path d="M1238.02 325.384C1238.84 325.384 1239.52 324.651 1239.52 323.747C1239.52 322.843 1238.84 322.11 1238.02 322.11C1237.18 322.11 1236.51 322.843 1236.51 323.747C1236.51 324.651 1237.18 325.384 1238.02 325.384Z" fill="#4181E0" fill-opacity="0.34"/>
<path d="M1257.59 325.384C1258.41 325.384 1259.09 324.651 1259.09 323.747C1259.09 322.843 1258.41 322.11 1257.59 322.11C1256.76 322.11 1256.09 322.843 1256.09 323.747C1256.09 324.651 1256.76 325.384 1257.59 325.384Z" fill="#4181E0" fill-opacity="0.34"/>
<path d="M1277.16 325.384C1277.99 325.384 1278.66 324.651 1278.66 323.747C1278.66 322.843 1277.99 322.11 1277.16 322.11C1276.33 322.11 1275.66 322.843 1275.66 323.747C1275.66 324.651 1276.33 325.384 1277.16 325.384Z" fill="#4181E0" fill-opacity="0.34"/>
<path d="M1296.73 325.384C1297.56 325.384 1298.23 324.651 1298.23 323.747C1298.23 322.843 1297.56 322.11 1296.73 322.11C1295.9 322.11 1295.23 322.843 1295.23 323.747C1295.23 324.651 1295.9 325.384 1296.73 325.384Z" fill="#4181E0" fill-opacity="0.34"/>
<path d="M1238.02 346.547C1238.84 346.547 1239.52 345.814 1239.52 344.91C1239.52 344.006 1238.84 343.273 1238.02 343.273C1237.18 343.273 1236.51 344.006 1236.51 344.91C1236.51 345.814 1237.18 346.547 1238.02 346.547Z" fill="#4181E0" fill-opacity="0.34"/>
<path d="M1257.59 346.547C1258.41 346.547 1259.09 345.814 1259.09 344.91C1259.09 344.006 1258.41 343.273 1257.59 343.273C1256.76 343.273 1256.09 344.006 1256.09 344.91C1256.09 345.814 1256.76 346.547 1257.59 346.547Z" fill="#4181E0" fill-opacity="0.34"/>
<path d="M1277.16 346.547C1277.99 346.547 1278.66 345.814 1278.66 344.91C1278.66 344.006 1277.99 343.273 1277.16 343.273C1276.33 343.273 1275.66 344.006 1275.66 344.91C1275.66 345.814 1276.33 346.547 1277.16 346.547Z" fill="#4181E0" fill-opacity="0.34"/>
<path d="M1296.73 346.547C1297.56 346.547 1298.23 345.814 1298.23 344.91C1298.23 344.006 1297.56 343.273 1296.73 343.273C1295.9 343.273 1295.23 344.006 1295.23 344.91C1295.23 345.814 1295.9 346.547 1296.73 346.547Z" fill="#4181E0" fill-opacity="0.34"/>
<path d="M1239.52 366.074C1239.52 366.398 1239.42 366.715 1239.26 366.984C1239.1 367.253 1238.86 367.463 1238.59 367.586C1238.31 367.71 1238.02 367.743 1237.72 367.679C1237.43 367.617 1237.16 367.461 1236.96 367.232C1236.74 367.003 1236.6 366.712 1236.54 366.393C1236.49 366.076 1236.51 365.747 1236.63 365.448C1236.74 365.149 1236.93 364.893 1237.18 364.713C1237.43 364.534 1237.72 364.438 1238.02 364.438C1238.41 364.438 1238.79 364.61 1239.08 364.917C1239.36 365.224 1239.52 365.641 1239.52 366.074Z" fill="#4181E0" fill-opacity="0.34"/>
<path d="M1259.09 366.074C1259.09 366.398 1259 366.715 1258.83 366.984C1258.67 367.253 1258.43 367.463 1258.16 367.586C1257.89 367.71 1257.59 367.743 1257.3 367.679C1257 367.617 1256.73 367.461 1256.53 367.232C1256.31 367.003 1256.17 366.712 1256.12 366.393C1256.06 366.076 1256.09 365.747 1256.2 365.448C1256.31 365.149 1256.51 364.893 1256.76 364.713C1257 364.534 1257.29 364.438 1257.59 364.438C1257.99 364.438 1258.36 364.61 1258.65 364.917C1258.93 365.224 1259.09 365.641 1259.09 366.074Z" fill="#4181E0" fill-opacity="0.34"/>
<path d="M1278.66 366.074C1278.66 366.398 1278.57 366.715 1278.41 366.984C1278.24 367.253 1278.01 367.463 1277.73 367.586C1277.46 367.71 1277.15 367.743 1276.87 367.679C1276.58 367.617 1276.31 367.461 1276.1 367.232C1275.89 367.003 1275.74 366.712 1275.69 366.393C1275.63 366.076 1275.66 365.747 1275.77 365.448C1275.89 365.149 1276.08 364.893 1276.33 364.713C1276.57 364.534 1276.86 364.438 1277.16 364.438C1277.56 364.438 1277.94 364.61 1278.22 364.917C1278.5 365.224 1278.66 365.641 1278.66 366.074Z" fill="#4181E0" fill-opacity="0.34"/>
<path d="M1298.23 366.074C1298.23 366.398 1298.14 366.715 1297.98 366.984C1297.81 367.253 1297.58 367.463 1297.3 367.586C1297.03 367.71 1296.73 367.743 1296.43 367.679C1296.14 367.617 1295.88 367.461 1295.67 367.232C1295.46 367.003 1295.32 366.712 1295.26 366.393C1295.2 366.076 1295.23 365.747 1295.35 365.448C1295.46 365.149 1295.65 364.893 1295.89 364.713C1296.14 364.534 1296.43 364.438 1296.73 364.438C1296.92 364.438 1297.12 364.48 1297.3 364.562C1297.49 364.645 1297.65 364.765 1297.79 364.917C1297.93 365.069 1298.04 365.249 1298.11 365.448C1298.19 365.647 1298.23 365.859 1298.23 366.074Z" fill="#4181E0" fill-opacity="0.34"/>
<path d="M1239.52 387.24C1239.52 387.564 1239.42 387.88 1239.26 388.149C1239.1 388.418 1238.86 388.628 1238.59 388.752C1238.31 388.875 1238.02 388.908 1237.72 388.844C1237.43 388.781 1237.16 388.626 1236.96 388.397C1236.74 388.168 1236.6 387.876 1236.54 387.558C1236.49 387.241 1236.51 386.912 1236.63 386.613C1236.74 386.313 1236.93 386.058 1237.18 385.878C1237.43 385.699 1237.72 385.603 1238.02 385.603C1238.21 385.603 1238.41 385.645 1238.59 385.727C1238.77 385.81 1238.93 385.93 1239.08 386.082C1239.22 386.234 1239.32 386.415 1239.4 386.614C1239.47 386.812 1239.52 387.025 1239.52 387.24Z" fill="#4181E0" fill-opacity="0.34"/>
<path d="M1259.09 387.24C1259.09 387.564 1259 387.88 1258.83 388.149C1258.67 388.418 1258.43 388.628 1258.16 388.752C1257.89 388.875 1257.58 388.908 1257.3 388.844C1257 388.781 1256.73 388.626 1256.53 388.397C1256.31 388.168 1256.17 387.876 1256.12 387.558C1256.06 387.241 1256.09 386.912 1256.2 386.613C1256.31 386.313 1256.51 386.058 1256.76 385.878C1257 385.699 1257.29 385.603 1257.59 385.603C1257.79 385.603 1257.98 385.645 1258.16 385.727C1258.34 385.81 1258.51 385.93 1258.65 386.082C1258.79 386.234 1258.9 386.415 1258.98 386.614C1259.05 386.812 1259.09 387.025 1259.09 387.24Z" fill="#4181E0" fill-opacity="0.34"/>
<path d="M1278.66 387.24C1278.66 387.564 1278.57 387.88 1278.41 388.149C1278.24 388.418 1278.01 388.628 1277.73 388.752C1277.46 388.875 1277.15 388.908 1276.86 388.844C1276.58 388.781 1276.31 388.626 1276.1 388.397C1275.89 388.168 1275.74 387.876 1275.69 387.558C1275.63 387.241 1275.66 386.912 1275.77 386.613C1275.89 386.313 1276.08 386.058 1276.33 385.878C1276.57 385.699 1276.86 385.603 1277.16 385.603C1277.56 385.603 1277.94 385.776 1278.22 386.082C1278.5 386.39 1278.66 386.806 1278.66 387.24Z" fill="#4181E0" fill-opacity="0.34"/>
<path d="M1298.23 387.24C1298.23 387.564 1298.14 387.88 1297.98 388.149C1297.81 388.418 1297.58 388.628 1297.3 388.752C1297.03 388.875 1296.73 388.908 1296.43 388.844C1296.14 388.781 1295.88 388.626 1295.67 388.397C1295.46 388.168 1295.32 387.876 1295.26 387.558C1295.2 387.241 1295.23 386.912 1295.35 386.613C1295.46 386.313 1295.65 386.058 1295.89 385.878C1296.14 385.699 1296.43 385.603 1296.73 385.603C1296.92 385.603 1297.12 385.645 1297.3 385.727C1297.49 385.81 1297.65 385.93 1297.79 386.082C1297.93 386.234 1298.04 386.415 1298.11 386.614C1298.19 386.812 1298.23 387.025 1298.23 387.24Z" fill="#4181E0" fill-opacity="0.34"/>
<path d="M1313.96 325.384C1314.79 325.384 1315.46 324.651 1315.46 323.747C1315.46 322.843 1314.79 322.11 1313.96 322.11C1313.13 322.11 1312.46 322.843 1312.46 323.747C1312.46 324.651 1313.13 325.384 1313.96 325.384Z" fill="#4181E0" fill-opacity="0.34"/>
<path d="M1333.53 325.384C1334.36 325.384 1335.03 324.651 1335.03 323.747C1335.03 322.843 1334.36 322.11 1333.53 322.11C1332.7 322.11 1332.03 322.843 1332.03 323.747C1332.03 324.651 1332.7 325.384 1333.53 325.384Z" fill="#4181E0" fill-opacity="0.34"/>
<path d="M1353.1 325.384C1353.93 325.384 1354.6 324.651 1354.6 323.747C1354.6 322.843 1353.93 322.11 1353.1 322.11C1352.28 322.11 1351.6 322.843 1351.6 323.747C1351.6 324.651 1352.28 325.384 1353.1 325.384Z" fill="#4181E0" fill-opacity="0.34"/>
<path d="M1313.96 346.547C1314.79 346.547 1315.46 345.814 1315.46 344.91C1315.46 344.006 1314.79 343.273 1313.96 343.273C1313.13 343.273 1312.46 344.006 1312.46 344.91C1312.46 345.814 1313.13 346.547 1313.96 346.547Z" fill="#4181E0" fill-opacity="0.34"/>
<path d="M1333.53 346.547C1334.36 346.547 1335.03 345.814 1335.03 344.91C1335.03 344.006 1334.36 343.273 1333.53 343.273C1332.7 343.273 1332.03 344.006 1332.03 344.91C1332.03 345.814 1332.7 346.547 1333.53 346.547Z" fill="#4181E0" fill-opacity="0.34"/>
<path d="M1353.1 346.547C1353.93 346.547 1354.6 345.814 1354.6 344.91C1354.6 344.006 1353.93 343.273 1353.1 343.273C1352.28 343.273 1351.6 344.006 1351.6 344.91C1351.6 345.814 1352.28 346.547 1353.1 346.547Z" fill="#4181E0" fill-opacity="0.34"/>
<path d="M1315.46 366.074C1315.46 366.398 1315.37 366.715 1315.21 366.984C1315.05 367.253 1314.81 367.463 1314.53 367.586C1314.26 367.71 1313.96 367.743 1313.66 367.679C1313.37 367.617 1313.11 367.461 1312.9 367.232C1312.69 367.003 1312.55 366.712 1312.49 366.393C1312.43 366.076 1312.46 365.747 1312.58 365.448C1312.69 365.149 1312.88 364.893 1313.12 364.713C1313.37 364.534 1313.66 364.438 1313.96 364.438C1314.36 364.438 1314.74 364.61 1315.02 364.917C1315.3 365.224 1315.46 365.641 1315.46 366.074Z" fill="#4181E0" fill-opacity="0.34"/>
<path d="M1335.03 366.074C1335.03 366.398 1334.94 366.715 1334.78 366.984C1334.61 367.253 1334.38 367.463 1334.11 367.586C1333.83 367.71 1333.53 367.743 1333.24 367.679C1332.95 367.617 1332.68 367.461 1332.47 367.232C1332.26 367.003 1332.12 366.712 1332.06 366.393C1332 366.076 1332.03 365.747 1332.14 365.448C1332.26 365.149 1332.45 364.893 1332.7 364.713C1332.95 364.534 1333.24 364.438 1333.53 364.438C1333.93 364.438 1334.31 364.61 1334.59 364.917C1334.87 365.224 1335.03 365.641 1335.03 366.074Z" fill="#4181E0" fill-opacity="0.34"/>
<path d="M1354.6 366.074C1354.6 366.398 1354.52 366.715 1354.35 366.984C1354.18 367.253 1353.95 367.463 1353.68 367.586C1353.4 367.71 1353.1 367.743 1352.81 367.679C1352.52 367.617 1352.25 367.461 1352.04 367.232C1351.83 367.003 1351.69 366.712 1351.63 366.393C1351.57 366.076 1351.6 365.747 1351.71 365.448C1351.83 365.149 1352.02 364.893 1352.27 364.713C1352.52 364.534 1352.8 364.438 1353.1 364.438C1353.5 364.438 1353.88 364.61 1354.16 364.917C1354.45 365.224 1354.6 365.641 1354.6 366.074Z" fill="#4181E0" fill-opacity="0.34"/>
<path d="M1315.46 387.24C1315.46 387.564 1315.37 387.88 1315.21 388.149C1315.05 388.418 1314.81 388.628 1314.53 388.752C1314.26 388.875 1313.96 388.908 1313.66 388.844C1313.37 388.781 1313.11 388.626 1312.9 388.397C1312.69 388.168 1312.55 387.876 1312.49 387.558C1312.43 387.241 1312.46 386.912 1312.58 386.613C1312.69 386.313 1312.88 386.058 1313.12 385.878C1313.37 385.699 1313.66 385.603 1313.96 385.603C1314.16 385.603 1314.36 385.645 1314.53 385.727C1314.72 385.81 1314.88 385.93 1315.02 386.082C1315.16 386.234 1315.27 386.415 1315.34 386.614C1315.42 386.812 1315.46 387.025 1315.46 387.24Z" fill="#4181E0" fill-opacity="0.34"/>
<path d="M1335.03 387.24C1335.03 387.564 1334.94 387.88 1334.78 388.149C1334.61 388.418 1334.38 388.628 1334.11 388.752C1333.83 388.875 1333.53 388.908 1333.24 388.844C1332.95 388.781 1332.68 388.626 1332.47 388.397C1332.26 388.168 1332.12 387.876 1332.06 387.558C1332 387.241 1332.03 386.912 1332.14 386.613C1332.26 386.313 1332.45 386.058 1332.7 385.878C1332.95 385.699 1333.24 385.603 1333.53 385.603C1333.73 385.603 1333.92 385.645 1334.11 385.727C1334.29 385.81 1334.45 385.93 1334.59 386.082C1334.73 386.234 1334.85 386.415 1334.92 386.614C1334.99 386.812 1335.03 387.025 1335.03 387.24Z" fill="#4181E0" fill-opacity="0.34"/>
<path d="M1354.6 387.24C1354.6 387.564 1354.52 387.88 1354.35 388.149C1354.18 388.418 1353.95 388.628 1353.68 388.752C1353.4 388.875 1353.1 388.908 1352.81 388.844C1352.52 388.781 1352.25 388.626 1352.04 388.397C1351.83 388.168 1351.69 387.876 1351.63 387.558C1351.57 387.241 1351.6 386.912 1351.71 386.613C1351.83 386.313 1352.02 386.058 1352.27 385.878C1352.52 385.699 1352.8 385.603 1353.1 385.603C1353.5 385.603 1353.88 385.776 1354.16 386.082C1354.45 386.39 1354.6 386.806 1354.6 387.24Z" fill="#4181E0" fill-opacity="0.34"/>
<path d="M1238.02 408.448C1238.84 408.448 1239.52 407.716 1239.52 406.812C1239.52 405.907 1238.84 405.175 1238.02 405.175C1237.18 405.175 1236.51 405.907 1236.51 406.812C1236.51 407.716 1237.18 408.448 1238.02 408.448Z" fill="#4181E0" fill-opacity="0.34"/>
<path d="M1257.59 408.448C1258.41 408.448 1259.09 407.716 1259.09 406.812C1259.09 405.907 1258.41 405.175 1257.59 405.175C1256.76 405.175 1256.09 405.907 1256.09 406.812C1256.09 407.716 1256.76 408.448 1257.59 408.448Z" fill="#4181E0" fill-opacity="0.34"/>
<path d="M1277.16 408.448C1277.99 408.448 1278.66 407.716 1278.66 406.812C1278.66 405.907 1277.99 405.175 1277.16 405.175C1276.33 405.175 1275.66 405.907 1275.66 406.812C1275.66 407.716 1276.33 408.448 1277.16 408.448Z" fill="#4181E0" fill-opacity="0.34"/>
<path d="M1296.73 408.448C1297.56 408.448 1298.23 407.716 1298.23 406.812C1298.23 405.907 1297.56 405.175 1296.73 405.175C1295.9 405.175 1295.23 405.907 1295.23 406.812C1295.23 407.716 1295.9 408.448 1296.73 408.448Z" fill="#4181E0" fill-opacity="0.34"/>
<path d="M1238.02 429.613C1238.84 429.613 1239.52 428.88 1239.52 427.976C1239.52 427.072 1238.84 426.339 1238.02 426.339C1237.18 426.339 1236.51 427.072 1236.51 427.976C1236.51 428.88 1237.18 429.613 1238.02 429.613Z" fill="#4181E0" fill-opacity="0.34"/>
<path d="M1257.59 429.613C1258.41 429.613 1259.09 428.88 1259.09 427.976C1259.09 427.072 1258.41 426.339 1257.59 426.339C1256.76 426.339 1256.09 427.072 1256.09 427.976C1256.09 428.88 1256.76 429.613 1257.59 429.613Z" fill="#4181E0" fill-opacity="0.34"/>
<path d="M1277.16 429.613C1277.99 429.613 1278.66 428.88 1278.66 427.976C1278.66 427.072 1277.99 426.339 1277.16 426.339C1276.33 426.339 1275.66 427.072 1275.66 427.976C1275.66 428.88 1276.33 429.613 1277.16 429.613Z" fill="#4181E0" fill-opacity="0.34"/>
<path d="M1296.73 429.613C1297.56 429.613 1298.23 428.88 1298.23 427.976C1298.23 427.072 1297.56 426.339 1296.73 426.339C1295.9 426.339 1295.23 427.072 1295.23 427.976C1295.23 428.88 1295.9 429.613 1296.73 429.613Z" fill="#4181E0" fill-opacity="0.34"/>
<path d="M1239.52 449.139C1239.52 449.463 1239.42 449.78 1239.26 450.049C1239.1 450.318 1238.86 450.528 1238.59 450.651C1238.31 450.775 1238.02 450.808 1237.72 450.744C1237.43 450.681 1237.16 450.525 1236.96 450.296C1236.74 450.067 1236.6 449.776 1236.54 449.458C1236.49 449.141 1236.51 448.812 1236.63 448.513C1236.74 448.214 1236.93 447.958 1237.18 447.778C1237.43 447.599 1237.72 447.502 1238.02 447.502C1238.41 447.502 1238.79 447.675 1239.08 447.982C1239.36 448.289 1239.52 448.705 1239.52 449.139Z" fill="#4181E0" fill-opacity="0.34"/>
<path d="M1259.09 449.139C1259.09 449.463 1259 449.78 1258.83 450.049C1258.67 450.318 1258.43 450.528 1258.16 450.651C1257.89 450.775 1257.59 450.808 1257.3 450.744C1257 450.681 1256.73 450.525 1256.53 450.296C1256.31 450.067 1256.17 449.776 1256.12 449.458C1256.06 449.141 1256.09 448.812 1256.2 448.513C1256.31 448.214 1256.51 447.958 1256.76 447.778C1257 447.599 1257.29 447.502 1257.59 447.502C1257.99 447.502 1258.36 447.675 1258.65 447.982C1258.93 448.289 1259.09 448.705 1259.09 449.139Z" fill="#4181E0" fill-opacity="0.34"/>
<path d="M1278.66 449.139C1278.66 449.463 1278.57 449.78 1278.41 450.049C1278.24 450.318 1278.01 450.528 1277.73 450.651C1277.46 450.775 1277.15 450.808 1276.87 450.744C1276.58 450.681 1276.31 450.525 1276.1 450.296C1275.89 450.067 1275.74 449.776 1275.69 449.458C1275.63 449.141 1275.66 448.812 1275.77 448.513C1275.89 448.214 1276.08 447.958 1276.33 447.778C1276.57 447.599 1276.86 447.502 1277.16 447.502C1277.56 447.502 1277.94 447.675 1278.22 447.982C1278.5 448.289 1278.66 448.705 1278.66 449.139Z" fill="#4181E0" fill-opacity="0.34"/>
<path d="M1298.23 449.139C1298.23 449.463 1298.14 449.78 1297.98 450.049C1297.81 450.318 1297.58 450.528 1297.3 450.651C1297.03 450.775 1296.73 450.808 1296.43 450.744C1296.14 450.681 1295.88 450.525 1295.67 450.296C1295.46 450.067 1295.32 449.776 1295.26 449.458C1295.2 449.141 1295.23 448.812 1295.35 448.513C1295.46 448.214 1295.65 447.958 1295.89 447.778C1296.14 447.599 1296.43 447.502 1296.73 447.502C1296.92 447.502 1297.12 447.545 1297.3 447.627C1297.49 447.71 1297.65 447.83 1297.79 447.982C1297.93 448.134 1298.04 448.314 1298.11 448.513C1298.19 448.712 1298.23 448.924 1298.23 449.139Z" fill="#4181E0" fill-opacity="0.34"/>
<path d="M1239.52 470.305C1239.52 470.629 1239.42 470.945 1239.26 471.214C1239.1 471.483 1238.86 471.693 1238.59 471.817C1238.31 471.94 1238.02 471.973 1237.72 471.909C1237.43 471.846 1237.16 471.69 1236.96 471.462C1236.74 471.233 1236.6 470.941 1236.54 470.623C1236.49 470.306 1236.51 469.977 1236.63 469.678C1236.74 469.378 1236.93 469.123 1237.18 468.943C1237.43 468.764 1237.72 468.667 1238.02 468.667C1238.21 468.667 1238.41 468.71 1238.59 468.792C1238.77 468.875 1238.93 468.995 1239.08 469.147C1239.22 469.299 1239.32 469.48 1239.4 469.679C1239.47 469.877 1239.52 470.09 1239.52 470.305Z" fill="#4181E0" fill-opacity="0.34"/>
<path d="M1259.09 470.305C1259.09 470.629 1259 470.945 1258.83 471.214C1258.67 471.483 1258.43 471.693 1258.16 471.817C1257.89 471.94 1257.58 471.973 1257.3 471.909C1257 471.846 1256.73 471.69 1256.53 471.462C1256.31 471.233 1256.17 470.941 1256.12 470.623C1256.06 470.306 1256.09 469.977 1256.2 469.678C1256.31 469.378 1256.51 469.123 1256.76 468.943C1257 468.764 1257.29 468.667 1257.59 468.667C1257.79 468.667 1257.98 468.71 1258.16 468.792C1258.34 468.875 1258.51 468.995 1258.65 469.147C1258.79 469.299 1258.9 469.48 1258.98 469.679C1259.05 469.877 1259.09 470.09 1259.09 470.305Z" fill="#4181E0" fill-opacity="0.34"/>
<path d="M1278.66 470.305C1278.66 470.629 1278.57 470.945 1278.41 471.214C1278.24 471.483 1278.01 471.693 1277.73 471.817C1277.46 471.94 1277.15 471.973 1276.86 471.909C1276.58 471.846 1276.31 471.69 1276.1 471.462C1275.89 471.233 1275.74 470.941 1275.69 470.623C1275.63 470.306 1275.66 469.977 1275.77 469.678C1275.89 469.378 1276.08 469.123 1276.33 468.943C1276.57 468.764 1276.86 468.667 1277.16 468.667C1277.56 468.667 1277.94 468.841 1278.22 469.147C1278.5 469.454 1278.66 469.871 1278.66 470.305Z" fill="#4181E0" fill-opacity="0.34"/>
<path d="M1298.23 470.305C1298.23 470.629 1298.14 470.945 1297.98 471.214C1297.81 471.483 1297.58 471.693 1297.3 471.817C1297.03 471.94 1296.73 471.973 1296.43 471.909C1296.14 471.846 1295.88 471.69 1295.67 471.462C1295.46 471.233 1295.32 470.941 1295.26 470.623C1295.2 470.306 1295.23 469.977 1295.35 469.678C1295.46 469.378 1295.65 469.123 1295.89 468.943C1296.14 468.764 1296.43 468.667 1296.73 468.667C1296.92 468.667 1297.12 468.71 1297.3 468.792C1297.49 468.875 1297.65 468.995 1297.79 469.147C1297.93 469.299 1298.04 469.48 1298.11 469.679C1298.19 469.877 1298.23 470.09 1298.23 470.305Z" fill="#4181E0" fill-opacity="0.34"/>
<path d="M1313.96 408.448C1314.79 408.448 1315.46 407.716 1315.46 406.812C1315.46 405.907 1314.79 405.175 1313.96 405.175C1313.13 405.175 1312.46 405.907 1312.46 406.812C1312.46 407.716 1313.13 408.448 1313.96 408.448Z" fill="#4181E0" fill-opacity="0.34"/>
<path d="M1333.53 408.448C1334.36 408.448 1335.03 407.716 1335.03 406.812C1335.03 405.907 1334.36 405.175 1333.53 405.175C1332.7 405.175 1332.03 405.907 1332.03 406.812C1332.03 407.716 1332.7 408.448 1333.53 408.448Z" fill="#4181E0" fill-opacity="0.34"/>
<path d="M1353.1 408.448C1353.93 408.448 1354.6 407.716 1354.6 406.812C1354.6 405.907 1353.93 405.175 1353.1 405.175C1352.28 405.175 1351.6 405.907 1351.6 406.812C1351.6 407.716 1352.28 408.448 1353.1 408.448Z" fill="#4181E0" fill-opacity="0.34"/>
<path d="M1313.96 429.613C1314.79 429.613 1315.46 428.88 1315.46 427.976C1315.46 427.072 1314.79 426.339 1313.96 426.339C1313.13 426.339 1312.46 427.072 1312.46 427.976C1312.46 428.88 1313.13 429.613 1313.96 429.613Z" fill="#4181E0" fill-opacity="0.34"/>
<path d="M1333.53 429.613C1334.36 429.613 1335.03 428.88 1335.03 427.976C1335.03 427.072 1334.36 426.339 1333.53 426.339C1332.7 426.339 1332.03 427.072 1332.03 427.976C1332.03 428.88 1332.7 429.613 1333.53 429.613Z" fill="#4181E0" fill-opacity="0.34"/>
<path d="M1353.1 429.613C1353.93 429.613 1354.6 428.88 1354.6 427.976C1354.6 427.072 1353.93 426.339 1353.1 426.339C1352.28 426.339 1351.6 427.072 1351.6 427.976C1351.6 428.88 1352.28 429.613 1353.1 429.613Z" fill="#4181E0" fill-opacity="0.34"/>
<path d="M1315.46 449.139C1315.46 449.463 1315.37 449.78 1315.21 450.049C1315.05 450.318 1314.81 450.528 1314.53 450.651C1314.26 450.775 1313.96 450.808 1313.66 450.744C1313.37 450.681 1313.11 450.525 1312.9 450.296C1312.69 450.067 1312.55 449.776 1312.49 449.458C1312.43 449.141 1312.46 448.812 1312.58 448.513C1312.69 448.214 1312.88 447.958 1313.12 447.778C1313.37 447.599 1313.66 447.502 1313.96 447.502C1314.36 447.502 1314.74 447.675 1315.02 447.982C1315.3 448.289 1315.46 448.705 1315.46 449.139Z" fill="#4181E0" fill-opacity="0.34"/>
<path d="M1335.03 449.139C1335.03 449.463 1334.94 449.78 1334.78 450.049C1334.61 450.318 1334.38 450.528 1334.11 450.651C1333.83 450.775 1333.53 450.808 1333.24 450.744C1332.95 450.681 1332.68 450.525 1332.47 450.296C1332.26 450.067 1332.12 449.776 1332.06 449.458C1332 449.141 1332.03 448.812 1332.14 448.513C1332.26 448.214 1332.45 447.958 1332.7 447.778C1332.95 447.599 1333.24 447.502 1333.53 447.502C1333.93 447.502 1334.31 447.675 1334.59 447.982C1334.87 448.289 1335.03 448.705 1335.03 449.139Z" fill="#4181E0" fill-opacity="0.34"/>
<path d="M1354.6 449.139C1354.6 449.463 1354.52 449.78 1354.35 450.049C1354.18 450.318 1353.95 450.528 1353.68 450.651C1353.4 450.775 1353.1 450.808 1352.81 450.744C1352.52 450.681 1352.25 450.525 1352.04 450.296C1351.83 450.067 1351.69 449.776 1351.63 449.458C1351.57 449.141 1351.6 448.812 1351.71 448.513C1351.83 448.214 1352.02 447.958 1352.27 447.778C1352.52 447.599 1352.8 447.502 1353.1 447.502C1353.5 447.502 1353.88 447.675 1354.16 447.982C1354.45 448.289 1354.6 448.705 1354.6 449.139Z" fill="#4181E0" fill-opacity="0.34"/>
<path d="M1315.46 470.305C1315.46 470.629 1315.37 470.945 1315.21 471.214C1315.05 471.483 1314.81 471.693 1314.53 471.817C1314.26 471.94 1313.96 471.973 1313.66 471.909C1313.37 471.846 1313.11 471.69 1312.9 471.462C1312.69 471.233 1312.55 470.941 1312.49 470.623C1312.43 470.306 1312.46 469.977 1312.58 469.678C1312.69 469.378 1312.88 469.123 1313.12 468.943C1313.37 468.764 1313.66 468.667 1313.96 468.667C1314.16 468.667 1314.36 468.71 1314.53 468.792C1314.72 468.875 1314.88 468.995 1315.02 469.147C1315.16 469.299 1315.27 469.48 1315.34 469.679C1315.42 469.877 1315.46 470.09 1315.46 470.305Z" fill="#4181E0" fill-opacity="0.34"/>
<path d="M1335.03 470.305C1335.03 470.629 1334.94 470.945 1334.78 471.214C1334.61 471.483 1334.38 471.693 1334.11 471.817C1333.83 471.94 1333.53 471.973 1333.24 471.909C1332.95 471.846 1332.68 471.69 1332.47 471.462C1332.26 471.233 1332.12 470.941 1332.06 470.623C1332 470.306 1332.03 469.977 1332.14 469.678C1332.26 469.378 1332.45 469.123 1332.7 468.943C1332.95 468.764 1333.24 468.667 1333.53 468.667C1333.73 468.667 1333.92 468.71 1334.11 468.792C1334.29 468.875 1334.45 468.995 1334.59 469.147C1334.73 469.299 1334.85 469.48 1334.92 469.679C1334.99 469.877 1335.03 470.09 1335.03 470.305Z" fill="#4181E0" fill-opacity="0.34"/>
<path d="M1354.6 470.305C1354.6 470.629 1354.52 470.945 1354.35 471.214C1354.18 471.483 1353.95 471.693 1353.68 471.817C1353.4 471.94 1353.1 471.973 1352.81 471.909C1352.52 471.846 1352.25 471.69 1352.04 471.462C1351.83 471.233 1351.69 470.941 1351.63 470.623C1351.57 470.306 1351.6 469.977 1351.71 469.678C1351.83 469.378 1352.02 469.123 1352.27 468.943C1352.52 468.764 1352.8 468.667 1353.1 468.667C1353.5 468.667 1353.88 468.841 1354.16 469.147C1354.45 469.454 1354.6 469.871 1354.6 470.305Z" fill="#4181E0" fill-opacity="0.34"/>
<line x1="124" y1="212.5" x2="197" y2="212.5" stroke="#0DD7F7" stroke-width="3"/>
</svg>
